<?xml version="1.0" encoding="UTF-8"?>
<svg version="1.1" xmlns="http://www.w3.org/2000/svg" width="531" height="470">
<path d="M0 0 C-1.06171605 13.85568033 -2.3326047 27.66888497 -3.9465332 41.47192383 C-4.71508028 48.11288078 -5.30770665 54.73912189 -5.73413086 61.41137695 C-6 64 -6 64 -7 66 C-8.9375 65.1875 -8.9375 65.1875 -11 64 C-11.33 63.01 -11.66 62.02 -12 61 C-12.66 61 -13.32 61 -14 61 C-15.2890625 59.5390625 -15.2890625 59.5390625 -16.625 57.625 C-17.07101562 56.99851563 -17.51703125 56.37203125 -17.9765625 55.7265625 C-19 54 -19 54 -19 52 C-19.99 51.67 -20.98 51.34 -22 51 C-23.52239093 53.26980217 -25.04307191 55.54071521 -26.5625 57.8125 C-27.01560547 58.48869385 -27.46871094 59.1648877 -27.93554688 59.86157227 C-31.28563155 64.8789993 -34.49980487 69.96001429 -37.625 75.12109375 C-38.305625 76.05115234 -38.305625 76.05115234 -39 77 C-39.66 77 -40.32 77 -41 77 C-41.26554687 77.72654785 -41.53109375 78.4530957 -41.8046875 79.20166016 C-43.00295043 82.00690724 -44.39024515 84.26964161 -46.125 86.7734375 C-47.05372925 88.12296509 -47.05372925 88.12296509 -48.0012207 89.49975586 C-48.99061646 90.92300171 -48.99061646 90.92300171 -50 92.375 C-51.36907813 94.36287603 -52.73756663 96.35115829 -54.10546875 98.33984375 C-55.10779541 99.79366455 -55.10779541 99.79366455 -56.13037109 101.27685547 C-58.55594153 104.80973776 -60.94316281 108.36674034 -63.3125 111.9375 C-63.89149048 112.80967163 -63.89149048 112.80967163 -64.48217773 113.69946289 C-65.25204282 114.85969581 -66.02165708 116.02009519 -66.79101562 117.18066406 C-68.12183821 119.18334781 -69.45884168 121.1818147 -70.796875 123.1796875 C-71.25924561 123.87070557 -71.72161621 124.56172363 -72.19799805 125.27368164 C-73.08667732 126.60153289 -73.97612434 127.92887074 -74.86645508 129.25561523 C-77.0767123 132.54252581 -77.0767123 132.54252581 -79 136 C-79.66 136 -80.32 136 -81 136 C-81.24492187 136.69480469 -81.48984375 137.38960937 -81.7421875 138.10546875 C-83.19265742 141.44335139 -85.07597846 144.3250872 -87.125 147.3125 C-88.01464353 148.6286896 -88.90394028 149.94511363 -89.79296875 151.26171875 C-90.29231934 151.99825684 -90.79166992 152.73479492 -91.30615234 153.49365234 C-94.70501022 158.52286465 -98.06871215 163.57562133 -101.4375 168.625 C-102.13568848 169.66825439 -102.83387695 170.71150879 -103.55322266 171.78637695 C-104.21499512 172.77726318 -104.87676758 173.76814941 -105.55859375 174.7890625 C-106.14954834 175.67287598 -106.74050293 176.55668945 -107.34936523 177.46728516 C-108.9633251 179.94372645 -110.49627313 182.45540727 -112 185 C-111.505 185.61875 -111.01 186.2375 -110.5 186.875 C-109 189 -109 189 -109 191 C-108.34 191 -107.68 191 -107 191 C-106.01 193.475 -106.01 193.475 -105 196 C-104.34 196 -103.68 196 -103 196 C-101.58984375 197.58203125 -101.58984375 197.58203125 -99.9375 199.8125 C-96.41283415 204.48249752 -92.73977901 209.00757544 -89.015625 213.51953125 C-84 219.69186047 -84 219.69186047 -84 222 C-83.01 222.33 -82.02 222.66 -81 223 C-79.74609375 224.42578125 -79.74609375 224.42578125 -78.4375 226.3125 C-75.2683677 230.73323898 -71.80821279 234.8517882 -68.25170898 238.9621582 C-65 242.78414585 -65 242.78414585 -65 245 C-64.34 245 -63.68 245 -63 245 C-61.5546875 246.6171875 -61.5546875 246.6171875 -59.875 248.875 C-56.52670813 253.32294141 -53.045986 257.63873803 -49.50390625 261.93359375 C-48 264 -48 264 -48 266 C-47.34 266 -46.68 266 -46 266 C-45.731875 266.804375 -45.46375 267.60875 -45.1875 268.4375 C-44.795625 269.283125 -44.40375 270.12875 -44 271 C-43.01 271.33 -42.02 271.66 -41 272 C-39.23828125 273.93359375 -39.23828125 273.93359375 -37.3125 276.4375 C-36.61769531 277.33339844 -35.92289062 278.22929687 -35.20703125 279.15234375 C-34.47871094 280.09207031 -33.75039063 281.03179687 -33 282 C-30.82716699 284.6597837 -28.65089655 287.31660265 -26.46875 289.96875 C-25 292 -25 292 -25 294 C-24.34 294 -23.68 294 -23 294 C-20.25624329 296.95481492 -20 297.77471908 -20 302 C-28.5534877 302.06947395 -37.10685775 302.12279776 -45.66055775 302.15543652 C-49.63228627 302.17110056 -53.60382193 302.19235199 -57.57543945 302.22631836 C-61.40743089 302.25888596 -65.23923668 302.27684745 -69.07135582 302.28463173 C-70.53422659 302.29017996 -71.99708707 302.30101425 -73.45987892 302.31719017 C-75.50708696 302.33893079 -77.5535254 302.34196847 -79.60083008 302.34057617 C-81.34956169 302.35056892 -81.34956169 302.35056892 -83.13362122 302.36076355 C-86 302 -86 302 -87.89994812 300.60371399 C-89 299 -89 299 -89 297 C-89.66 297 -90.32 297 -91 297 C-92.72785151 294.99483899 -94.34029025 292.98100392 -95.9375 290.875 C-96.93213834 289.58581919 -97.92693448 288.29676011 -98.921875 287.0078125 C-99.43169922 286.34297852 -99.94152344 285.67814453 -100.46679688 284.99316406 C-102.85074312 281.89403394 -105.26897505 278.82216884 -107.6875 275.75 C-108.1424585 275.17056641 -108.59741699 274.59113281 -109.06616211 273.99414062 C-112.46412944 269.66889704 -115.89344014 265.36958491 -119.34375 261.0859375 C-120.16359375 260.05339844 -120.16359375 260.05339844 -121 259 C-121.5671875 258.29101562 -122.134375 257.58203125 -122.71875 256.8515625 C-124 255 -124 255 -124 253 C-124.66 253 -125.32 253 -126 253 C-127.5078125 251.3203125 -127.5078125 251.3203125 -129.125 249.125 C-129.66382813 248.40570313 -130.20265625 247.68640625 -130.7578125 246.9453125 C-132 245 -132 245 -132 243 C-132.66 243 -133.32 243 -134 243 C-135.2890625 241.5390625 -135.2890625 241.5390625 -136.625 239.625 C-137.07101562 238.99851562 -137.51703125 238.37203125 -137.9765625 237.7265625 C-139 236 -139 236 -139 234 C-139.66 234 -140.32 234 -141 234 C-142.30786133 232.51806641 -142.30786133 232.51806641 -143.76953125 230.4765625 C-144.30143066 229.7434082 -144.83333008 229.01025391 -145.38134766 228.25488281 C-145.91550293 227.51077148 -146.4496582 226.76666016 -147 226 C-147.93850528 224.73482207 -148.87980206 223.47170888 -149.82421875 222.2109375 C-150.52248779 221.27471558 -150.52248779 221.27471558 -151.23486328 220.31958008 C-156.5054495 213.26408105 -161.87201153 206.29628373 -167.33203125 199.38671875 C-170.85003725 194.9316076 -174.31285513 190.43453955 -177.76171875 185.92578125 C-179.15395308 184.10591473 -180.55145137 182.29004764 -181.95703125 180.48046875 C-182.50746094 179.76503906 -183.05789063 179.04960937 -183.625 178.3125 C-184.32496094 177.40951172 -184.32496094 177.40951172 -185.0390625 176.48828125 C-186 175 -186 175 -186 173 C-186.99 173 -187.98 173 -189 173 C-189.37125 174.01513672 -189.37125 174.01513672 -189.75 175.05078125 C-191.24731535 178.58350966 -193.08632695 181.86977335 -195 185.1875 C-195.53367187 186.13012695 -195.53367187 186.13012695 -196.078125 187.09179688 C-197.55442771 189.66706373 -198.89138726 191.89138726 -201 194 C-203.40926234 194.18765773 -205.70248397 194.25200981 -208.11181641 194.22705078 C-209.20953117 194.22748886 -209.20953117 194.22748886 -210.329422 194.22793579 C-212.75358854 194.22654001 -215.17744951 194.2109674 -217.6015625 194.1953125 C-219.28022087 194.19158325 -220.95888141 194.18873586 -222.63754272 194.18673706 C-227.05991607 194.17909369 -231.48215845 194.15943922 -235.90447998 194.1373291 C-240.41546863 194.11688579 -244.9264784 194.10773859 -249.4375 194.09765625 C-258.29172427 194.07619394 -267.14585125 194.04204955 -276 194 C-276.495 197.96 -276.495 197.96 -277 202 C-278.32 207.61 -279.64 213.22 -281 219 C-258.56 219 -236.12 219 -213 219 C-214.04104903 223.16419612 -215.44557574 225.59410099 -218 229 C-218.66 229 -219.32 229 -220 229 C-220.226875 229.680625 -220.45375 230.36125 -220.6875 231.0625 C-222.31226146 234.6988709 -224.32803257 238.02829263 -227 241 C-227.66 241 -228.32 241 -229 241 C-229.4640625 242.175625 -229.4640625 242.175625 -229.9375 243.375 C-231 246 -231 246 -232 248 C-232.66 248 -233.32 248 -234 248 C-234.226875 248.721875 -234.45375 249.44375 -234.6875 250.1875 C-236.39662963 253.84992063 -237.73395504 255.54454723 -241 258 C-244.81234242 258.69750774 -248.56148051 258.58166586 -252.42578125 258.48828125 C-253.52850876 258.48120651 -254.63123627 258.47413177 -255.76737976 258.46684265 C-259.28311517 258.43889489 -262.79724743 258.37615165 -266.3125 258.3125 C-268.69854468 258.28741781 -271.08461437 258.26460451 -273.47070312 258.24414062 C-279.31434737 258.18906692 -285.15705915 258.10543545 -291 258 C-291.25394531 259.23016846 -291.50789063 260.46033691 -291.76953125 261.7277832 C-293.67981477 270.92696608 -295.66191094 280.08573853 -298 289.1875 C-298.51445139 291.21350905 -299.02877384 293.23955084 -299.54296875 295.265625 C-299.78966309 296.23306641 -300.03635742 297.20050781 -300.29052734 298.19726562 C-300.95214441 300.81094902 -301.59919178 303.4276043 -302.23828125 306.046875 C-302.51381836 307.17186401 -302.51381836 307.17186401 -302.79492188 308.31958008 C-303.27760337 310.29470364 -303.7580303 312.2703778 -304.23828125 314.24609375 C-305 317 -305 317 -306 318 C-307.44289787 318.09295815 -308.89029785 318.11746513 -310.33618164 318.11352539 C-311.71750023 318.11341209 -311.71750023 318.11341209 -313.12672424 318.11329651 C-314.12775681 318.10813522 -315.12878937 318.10297394 -316.16015625 318.09765625 C-317.17975937 318.0962413 -318.19936249 318.09482635 -319.24986267 318.09336853 C-322.52077107 318.08775097 -325.79161213 318.0751955 -329.0625 318.0625 C-331.27408756 318.05748726 -333.48567618 318.05292396 -335.69726562 318.04882812 C-341.13153357 318.03777584 -346.56576197 318.02102063 -352 318 C-350.82763031 310.50006808 -349.43682164 303.12109317 -347.625 295.75 C-347.40513428 294.84161377 -347.18526855 293.93322754 -346.95874023 292.99731445 C-346.31125807 290.33017608 -345.6572783 287.66473943 -345 285 C-344.74065674 283.9478833 -344.74065674 283.9478833 -344.47607422 282.87451172 C-343.33148967 278.24610521 -342.16647412 273.62292113 -341 269 C-334.18744489 241.97831573 -327.5193756 214.91726761 -321.29516602 187.75341797 C-315.33806131 161.89681279 -315.33806131 161.89681279 -306 156 C-301.2830651 154.42985225 -297.1969681 153.75149562 -292.2358551 153.75949097 C-291.59283996 153.75778212 -290.94982482 153.75607327 -290.28732437 153.75431263 C-288.15310266 153.75104326 -286.01920205 153.76197867 -283.88500977 153.77294922 C-282.34705106 153.77351389 -280.80909182 153.77319569 -279.27113342 153.77206421 C-275.11047599 153.77149187 -270.94993456 153.78322698 -266.78930402 153.79721212 C-262.43579021 153.80973923 -258.08227356 153.81089154 -253.72874451 153.81326294 C-245.49119807 153.81947189 -237.2537049 153.83587479 -229.01618189 153.85596192 C-219.63531073 153.87833913 -210.25443698 153.88931893 -200.87354577 153.89935279 C-181.58233368 153.92024154 -162.29117113 153.95540613 -143 154 C-142.34 152.35 -141.68 150.7 -141 149 C-140.34 149 -139.68 149 -139 149 C-138.7525 148.44828125 -138.505 147.8965625 -138.25 147.328125 C-136.75765526 144.54863293 -134.96327477 142.2185293 -133 139.75 C-132.29875 138.85796875 -131.5975 137.9659375 -130.875 137.046875 C-129.946875 136.03367188 -129.946875 136.03367188 -129 135 C-128.34 135 -127.68 135 -127 135 C-126.731875 134.42765625 -126.46375 133.8553125 -126.1875 133.265625 C-124.95867364 130.92115366 -123.57477824 128.87595062 -122 126.75 C-121.484375 126.04359375 -120.96875 125.3371875 -120.4375 124.609375 C-119.963125 124.07828125 -119.48875 123.5471875 -119 123 C-118.34 123 -117.68 123 -117 123 C-116.6596875 122.2265625 -116.6596875 122.2265625 -116.3125 121.4375 C-114.51782382 118.10452995 -112.50034985 114.85296329 -110 112 C-109.34 112 -108.68 112 -108 112 C-107.7525 111.44828125 -107.505 110.8965625 -107.25 110.328125 C-105.75765526 107.54863293 -103.96327477 105.2185293 -102 102.75 C-101.29875 101.85796875 -100.5975 100.9659375 -99.875 100.046875 C-99.25625 99.37140625 -98.6375 98.6959375 -98 98 C-97.34 98 -96.68 98 -96 98 C-95.34 96.35 -94.68 94.7 -94 93 C-93.34 93 -92.68 93 -92 93 C-91.731875 92.42765625 -91.46375 91.8553125 -91.1875 91.265625 C-89.95867364 88.92115366 -88.57477824 86.87595062 -87 84.75 C-86.484375 84.04359375 -85.96875 83.3371875 -85.4375 82.609375 C-84.7259375 81.81273437 -84.7259375 81.81273437 -84 81 C-83.34 81 -82.68 81 -82 81 C-81.6596875 80.2265625 -81.6596875 80.2265625 -81.3125 79.4375 C-79.51782382 76.10452995 -77.50034985 72.85296329 -75 70 C-74.34 70 -73.68 70 -73 70 C-72.731875 69.42765625 -72.46375 68.8553125 -72.1875 68.265625 C-70.95867364 65.92115366 -69.57477824 63.87595062 -68 61.75 C-67.484375 61.04359375 -66.96875 60.3371875 -66.4375 59.609375 C-65.963125 59.07828125 -65.48875 58.5471875 -65 58 C-64.34 58 -63.68 58 -63 58 C-63 57.34 -63 56.68 -63 56 C-62.34 56 -61.68 56 -61 56 C-60.76023437 55.27683594 -60.52046875 54.55367187 -60.2734375 53.80859375 C-58.81804709 50.59869895 -57.04894808 48.61126933 -54.625 46.0625 C-51.29451323 42.54822382 -48.59263452 39.06652949 -46 35 C-47.20398438 34.59007812 -48.40796875 34.18015625 -49.6484375 33.7578125 C-51.22406356 33.21384636 -52.79957868 32.66955882 -54.375 32.125 C-55.1690625 31.85558594 -55.963125 31.58617187 -56.78125 31.30859375 C-57.92207031 30.91220703 -57.92207031 30.91220703 -59.0859375 30.5078125 C-59.7876709 30.26691895 -60.4894043 30.02602539 -61.21240234 29.77783203 C-63 29 -63 29 -65 27 C-61.22271589 24.70078359 -57.53896819 22.74218686 -53.41796875 21.1328125 C-52.53947266 20.78669922 -51.66097656 20.44058594 -50.75585938 20.08398438 C-49.39170898 19.54741211 -49.39170898 19.54741211 -48 19 C-36.2024789 14.26541156 -24.48322494 9.45951012 -13 4 C-11.31621932 3.20045326 -9.62903161 2.40801544 -7.9375 1.625 C-7.26589844 1.30789062 -6.59429687 0.99078125 -5.90234375 0.6640625 C-4 0 -4 0 0 0 Z " fill="#168831" transform="translate(460,103)"/>
<path d="M0 0 C4.76569479 0.18616715 9.53314864 0.26676426 14.30145264 0.35705566 C23.61071928 0.54850307 32.91222914 0.85448826 42.21551514 1.23596191 C40.30290817 5.15619967 38.15544974 8.00203385 35.21551514 11.23596191 C34.55551514 11.23596191 33.89551514 11.23596191 33.21551514 11.23596191 C32.81332764 12.19502441 32.81332764 12.19502441 32.40301514 13.17346191 C31.21551514 15.23596191 31.21551514 15.23596191 28.21551514 16.23596191 C27.51400361 17.55129602 26.85025588 18.88713783 26.21551514 20.23596191 C24.71551514 21.98596191 24.71551514 21.98596191 23.21551514 23.23596191 C22.55551514 23.23596191 21.89551514 23.23596191 21.21551514 23.23596191 C20.95770264 23.80830566 20.69989014 24.38064941 20.43426514 24.97033691 C19.10185572 27.44725186 17.56495396 29.37007852 15.71551514 31.48596191 C15.10707764 32.19236816 14.49864014 32.89877441 13.87176514 33.62658691 C12.21551514 35.23596191 12.21551514 35.23596191 10.21551514 35.23596191 C10.21551514 35.89596191 10.21551514 36.55596191 10.21551514 37.23596191 C8.84051514 38.86096191 8.84051514 38.86096191 7.21551514 40.23596191 C6.55551514 40.23596191 5.89551514 40.23596191 5.21551514 40.23596191 C5.21551514 40.89596191 5.21551514 41.55596191 5.21551514 42.23596191 C4.55551514 42.23596191 3.89551514 42.23596191 3.21551514 42.23596191 C3.21551514 42.89596191 3.21551514 43.55596191 3.21551514 44.23596191 C1.58834299 45.96560865 -0.06664553 47.59994992 -1.78448486 49.23596191 C-2.95870579 50.39374374 -4.13044975 51.55404141 -5.30010986 52.71643066 C-6.2166333 53.62618652 -6.2166333 53.62618652 -7.15167236 54.55432129 C-7.77300049 55.1711377 -8.39432861 55.7879541 -9.03448486 56.42346191 C-9.67128174 57.05187988 -10.30807861 57.68029785 -10.96417236 58.32775879 C-11.57003174 58.93039551 -12.17589111 59.53303223 -12.80010986 60.15393066 C-13.34957275 60.69815674 -13.89903564 61.24238281 -14.46514893 61.80310059 C-15.89174638 63.21976821 -15.89174638 63.21976821 -16.78448486 65.23596191 C-17.44448486 65.23596191 -18.10448486 65.23596191 -18.78448486 65.23596191 C-19.18667236 66.13314941 -19.18667236 66.13314941 -19.59698486 67.04846191 C-20.78365893 69.23444045 -21.88047599 70.64928785 -23.78448486 72.23596191 C-24.44448486 72.23596191 -25.10448486 72.23596191 -25.78448486 72.23596191 C-26.18667236 73.13314941 -26.18667236 73.13314941 -26.59698486 74.04846191 C-27.78365893 76.23444045 -28.88047599 77.64928785 -30.78448486 79.23596191 C-31.44448486 79.23596191 -32.10448486 79.23596191 -32.78448486 79.23596191 C-33.01135986 79.77221191 -33.23823486 80.30846191 -33.47198486 80.86096191 C-35.24018576 84.06056353 -37.32118689 86.52633414 -39.78448486 89.23596191 C-40.44448486 89.23596191 -41.10448486 89.23596191 -41.78448486 89.23596191 C-41.78448486 89.89596191 -41.78448486 90.55596191 -41.78448486 91.23596191 C-42.44448486 91.23596191 -43.10448486 91.23596191 -43.78448486 91.23596191 C-43.78448486 91.89596191 -43.78448486 92.55596191 -43.78448486 93.23596191 C-45.15948486 94.86096191 -45.15948486 94.86096191 -46.78448486 96.23596191 C-47.44448486 96.23596191 -48.10448486 96.23596191 -48.78448486 96.23596191 C-49.16516113 97.1055957 -49.16516113 97.1055957 -49.55352783 97.99279785 C-50.92207101 100.48668415 -52.45446255 102.13340028 -54.47979736 104.12658691 C-55.55294189 105.19006348 -55.55294189 105.19006348 -56.64776611 106.27502441 C-57.3941333 107.00463379 -58.14050049 107.73424316 -58.90948486 108.48596191 C-59.66358643 109.23104004 -60.41768799 109.97611816 -61.19464111 110.74377441 C-63.05349258 112.57909612 -64.91685491 114.40958101 -66.78448486 116.23596191 C-64.84950974 120.29337281 -62.28491823 123.14365644 -59.24542236 126.43127441 C-57.78448486 128.23596191 -57.78448486 128.23596191 -57.78448486 130.23596191 C-57.12448486 130.23596191 -56.46448486 130.23596191 -55.78448486 130.23596191 C-55.53698486 131.01971191 -55.28948486 131.80346191 -55.03448486 132.61096191 C-53.55797376 135.71163523 -52.7763962 135.82800364 -49.78448486 137.23596191 C-45.78448486 141.68040636 -45.78448486 141.68040636 -45.78448486 144.23596191 C-45.12448486 144.23596191 -44.46448486 144.23596191 -43.78448486 144.23596191 C-39.78448486 148.70655015 -39.78448486 148.70655015 -39.78448486 151.23596191 C-38.79448486 151.56596191 -37.80448486 151.89596191 -36.78448486 152.23596191 C-35.19732696 153.94760279 -33.68459101 155.7292401 -32.22198486 157.54846191 C-31.4369458 158.51396973 -30.65190674 159.47947754 -29.84307861 160.47424316 C-27.78448486 163.23596191 -27.78448486 163.23596191 -26.69464111 165.52893066 C-25.84239167 167.59907442 -25.84239167 167.59907442 -22.78448486 168.23596191 C-22.78448486 168.89596191 -22.78448486 169.55596191 -22.78448486 170.23596191 C-22.12448486 170.23596191 -21.46448486 170.23596191 -20.78448486 170.23596191 C-19.19914784 171.94928945 -17.68907272 173.73285239 -16.22198486 175.54846191 C-15.4163208 176.53459473 -14.61065674 177.52072754 -13.78057861 178.53674316 C-11.78448486 181.23596191 -11.78448486 181.23596191 -10.78448486 184.23596191 C-10.12448486 184.23596191 -9.46448486 184.23596191 -8.78448486 184.23596191 C-8.78448486 184.89596191 -8.78448486 185.55596191 -8.78448486 186.23596191 C-8.12448486 186.23596191 -7.46448486 186.23596191 -6.78448486 186.23596191 C-5.49542236 187.69689941 -5.49542236 187.69689941 -4.15948486 189.61096191 C-3.71346924 190.23744629 -3.26745361 190.86393066 -2.80792236 191.50939941 C-1.78448486 193.23596191 -1.78448486 193.23596191 -1.78448486 195.23596191 C-5.27014222 196.3978477 -8.39674377 196.38359987 -12.02227783 196.38122559 C-13.1227948 196.3862635 -13.1227948 196.3862635 -14.24554443 196.3914032 C-16.67260427 196.40090729 -19.09959507 196.40285608 -21.52667236 196.40393066 C-23.21434559 196.40714377 -24.90201853 196.41050789 -26.58969116 196.41401672 C-30.12875006 196.42000674 -33.66778454 196.42185677 -37.20684814 196.42126465 C-41.73854873 196.42116307 -46.27009248 196.43481156 -50.80175591 196.45203686 C-54.28820513 196.46316377 -57.77461653 196.46518364 -61.2610817 196.46465492 C-62.9316067 196.46583414 -64.60213271 196.47025264 -66.27264023 196.47798729 C-68.61117229 196.48780052 -70.94936514 196.48490389 -73.28790283 196.47888184 C-73.97586945 196.48450134 -74.66383606 196.49012085 -75.37265015 196.49591064 C-80.7981823 196.46046383 -84.26697094 195.66421031 -88.24151611 191.92346191 C-89.0188208 191.03658691 -89.79612549 190.14971191 -90.59698486 189.23596191 C-91.38718018 188.34908691 -92.17737549 187.46221191 -92.99151611 186.54846191 C-94.78448486 184.23596191 -94.78448486 184.23596191 -94.78448486 182.23596191 C-95.44448486 182.23596191 -96.10448486 182.23596191 -96.78448486 182.23596191 C-98.32300252 180.51644218 -99.79180245 178.73408694 -101.22198486 176.92346191 C-104.23684055 173.0712919 -104.23684055 173.0712919 -107.56964111 169.50549316 C-108.78448486 168.23596191 -108.78448486 168.23596191 -108.78448486 166.23596191 C-109.44448486 166.23596191 -110.10448486 166.23596191 -110.78448486 166.23596191 C-110.78448486 165.57596191 -110.78448486 164.91596191 -110.78448486 164.23596191 C-116.21271236 168.72014985 -121.23974193 173.58145132 -126.22198486 178.54846191 C-126.8492749 179.17124023 -127.47656494 179.79401855 -128.12286377 180.43566895 C-128.71115967 181.02589844 -129.29945557 181.61612793 -129.90557861 182.22424316 C-130.70113159 183.02148804 -130.70113159 183.02148804 -131.51275635 183.83483887 C-132.89392072 185.22984596 -132.89392072 185.22984596 -133.78448486 187.23596191 C-134.44448486 187.23596191 -135.10448486 187.23596191 -135.78448486 187.23596191 C-135.78448486 187.89596191 -135.78448486 188.55596191 -135.78448486 189.23596191 C-136.44448486 189.23596191 -137.10448486 189.23596191 -137.78448486 189.23596191 C-138.11448486 190.22596191 -138.44448486 191.21596191 -138.78448486 192.23596191 C-139.44448486 192.23596191 -140.10448486 192.23596191 -140.78448486 192.23596191 C-140.78448486 192.89596191 -140.78448486 193.55596191 -140.78448486 194.23596191 C-145.19630869 197.1771778 -149.70907837 196.32752468 -154.82940674 196.15783691 C-162.12987 196.01170587 -168.47689729 196.86455835 -174.65948486 201.11096191 C-175.39940674 201.60338379 -176.13932861 202.09580566 -176.90167236 202.60314941 C-178.90761351 204.34274153 -179.78271727 205.80008493 -180.78448486 208.23596191 C-181.44448486 208.23596191 -182.10448486 208.23596191 -182.78448486 208.23596191 C-183.01909424 209.06354004 -183.25370361 209.89111816 -183.49542236 210.74377441 C-185.02196189 214.87930878 -187.09419659 218.37755958 -189.40948486 222.11096191 C-189.82971924 222.79932129 -190.24995361 223.48768066 -190.68292236 224.19689941 C-191.71140958 225.87987849 -192.74720586 227.55838723 -193.78448486 229.23596191 C-194.77448486 228.90596191 -195.76448486 228.57596191 -196.78448486 228.23596191 C-196.80782716 202.48905283 -196.8254706 176.74214534 -196.83629704 150.99522781 C-196.84145715 139.04096371 -196.84849447 127.08670618 -196.85992432 115.13244629 C-196.8698798 104.71524449 -196.87634036 94.29804744 -196.87857336 83.88084102 C-196.87987899 78.36311298 -196.88295558 72.84539855 -196.89021492 67.32767487 C-196.89698873 62.13707098 -196.89909903 56.94648634 -196.89759254 51.75587845 C-196.89786826 49.8482897 -196.89986532 47.94070032 -196.90369034 46.03311539 C-196.90864879 43.43332831 -196.90747513 40.83361438 -196.90473938 38.23382568 C-196.90765222 37.47506929 -196.91056506 36.71631289 -196.91356617 35.93456388 C-196.90363065 32.45309288 -196.63678112 29.64514692 -195.78448486 26.23596191 C-174.66448486 26.23596191 -153.54448486 26.23596191 -131.78448486 26.23596191 C-131.45448486 49.00596191 -131.12448486 71.77596191 -130.78448486 95.23596191 C-123.45694281 88.83242048 -123.45694281 88.83242048 -117.78448486 81.23596191 C-117.12448486 81.23596191 -116.46448486 81.23596191 -115.78448486 81.23596191 C-115.78448486 80.57596191 -115.78448486 79.91596191 -115.78448486 79.23596191 C-114.40948486 77.61096191 -114.40948486 77.61096191 -112.78448486 76.23596191 C-112.12448486 76.23596191 -111.46448486 76.23596191 -110.78448486 76.23596191 C-110.78448486 75.57596191 -110.78448486 74.91596191 -110.78448486 74.23596191 C-110.12448486 74.23596191 -109.46448486 74.23596191 -108.78448486 74.23596191 C-108.78448486 73.57596191 -108.78448486 72.91596191 -108.78448486 72.23596191 C-107.40948486 70.61096191 -107.40948486 70.61096191 -105.78448486 69.23596191 C-105.12448486 69.23596191 -104.46448486 69.23596191 -103.78448486 69.23596191 C-103.78448486 68.57596191 -103.78448486 67.91596191 -103.78448486 67.23596191 C-103.12448486 67.23596191 -102.46448486 67.23596191 -101.78448486 67.23596191 C-101.52033783 66.6461705 -101.2561908 66.05637909 -100.98403931 65.44871521 C-99.73805941 63.15032338 -98.44685017 61.66286186 -96.59161377 59.83190918 C-95.62017929 58.86554283 -95.62017929 58.86554283 -94.62911987 57.87965393 C-93.93015594 57.19414963 -93.23119202 56.50864532 -92.51104736 55.80236816 C-91.79089447 55.08741684 -91.07074158 54.37246552 -90.32876587 53.635849 C-88.02703598 51.3519196 -85.71874231 49.07477805 -83.40948486 46.79846191 C-81.10822339 44.52488298 -78.80845589 42.2498437 -76.5116272 39.9717865 C-75.08311173 38.55545443 -73.65193115 37.14180393 -72.21774292 35.73121643 C-69.45007074 32.99118559 -66.85492893 30.32522283 -64.43829346 27.26306152 C-63.89253662 26.59411865 -63.34677979 25.92517578 -62.78448486 25.23596191 C-62.12448486 25.23596191 -61.46448486 25.23596191 -60.78448486 25.23596191 C-60.78448486 24.57596191 -60.78448486 23.91596191 -60.78448486 23.23596191 C-60.12448486 23.23596191 -59.46448486 23.23596191 -58.78448486 23.23596191 C-58.37207047 22.37863968 -58.37207047 22.37863968 -57.95132446 21.5039978 C-45.24052519 -3.20252479 -24.26604489 -1.0494958 0 0 Z " fill="#087C31" transform="translate(321.78448486328125,51.7640380859375)"/>
<path d="M0 0 C1.57121864 -0.002062 1.57121864 -0.002062 3.17417908 -0.00416565 C4.8972377 0.00122726 4.8972377 0.00122726 6.65510559 0.00672913 C8.46992683 0.00651009 8.46992683 0.00651009 10.32141113 0.00628662 C13.63933383 0.00686433 16.95719448 0.01188312 20.27510619 0.01886058 C23.74245379 0.02510756 27.20980219 0.02569898 30.67715454 0.02688599 C37.24318296 0.02999533 43.80919474 0.03820338 50.37521583 0.04823548 C57.85035248 0.05940892 65.32548992 0.06491017 72.80063283 0.06993091 C88.1776705 0.08038631 103.55469156 0.09797809 118.93171692 0.12025452 C117.72542436 3.84706364 116.53755319 7.0645813 114.43171692 10.37025452 C110.90803309 16.05501537 107.71236584 21.90393766 104.53523254 27.7872467 C104.12724426 28.53264709 103.71925598 29.27804749 103.29890442 30.04603577 C102.75919006 31.0424408 102.75919006 31.0424408 102.20857239 32.05897522 C100.56374074 34.71429331 99.14500336 36.88113016 96.93171692 39.12025452 C94.26917571 39.60125356 92.2478965 39.75736238 89.59284973 39.68788147 C88.86074783 39.6886116 88.12864594 39.68934174 87.37435913 39.69009399 C84.96042647 39.68661728 82.54843636 39.64775648 80.13484192 39.60853577 C78.45905105 39.59920783 76.78324652 39.59209163 75.10743713 39.58709717 C70.70120967 39.56802554 66.29580907 39.51892403 61.88990784 39.46357727 C57.39223924 39.41238792 52.89443674 39.38958384 48.39656067 39.36439514 C39.57458321 39.31080488 30.75321888 39.22549057 21.93171692 39.12025452 C21.60171692 41.76025452 21.27171692 44.40025452 20.93171692 47.12025452 C19.61171692 52.73025452 18.29171692 58.34025452 16.93171692 64.12025452 C39.37171692 64.12025452 61.81171692 64.12025452 84.93171692 64.12025452 C83.89066789 68.28445063 82.48614117 70.71435551 79.93171692 74.12025452 C79.27171692 74.12025452 78.61171692 74.12025452 77.93171692 74.12025452 C77.59140442 75.14119202 77.59140442 75.14119202 77.24421692 76.18275452 C75.61945545 79.81912541 73.60368435 83.14854715 70.93171692 86.12025452 C70.27171692 86.12025452 69.61171692 86.12025452 68.93171692 86.12025452 C68.46765442 87.29587952 68.46765442 87.29587952 67.99421692 88.49525452 C66.93171692 91.12025452 66.93171692 91.12025452 65.93171692 93.12025452 C65.27171692 93.12025452 64.61171692 93.12025452 63.93171692 93.12025452 C63.70484192 93.84212952 63.47796692 94.56400452 63.24421692 95.30775452 C61.53508729 98.97017515 60.19776188 100.66480174 56.93171692 103.12025452 C53.11937449 103.81776225 49.37023641 103.70192038 45.50593567 103.60853577 C44.40320816 103.60146103 43.30048065 103.59438629 42.16433716 103.58709717 C38.64860175 103.5591494 35.13446949 103.49640617 31.61921692 103.43275452 C29.23317224 103.40767232 26.84710255 103.38485902 24.46101379 103.36439514 C18.61736954 103.30932143 12.77465777 103.22568996 6.93171692 103.12025452 C6.67777161 104.35042297 6.42382629 105.58059143 6.16218567 106.84803772 C4.25190214 116.0472206 2.26980598 125.20599305 -0.06828308 134.30775452 C-0.58273447 136.33376356 -1.09705692 138.35980536 -1.61125183 140.38587952 C-1.85794617 141.35332092 -2.1046405 142.32076233 -2.35881042 143.31752014 C-3.02042749 145.93120354 -3.66747486 148.54785882 -4.30656433 151.16712952 C-4.58210144 152.29211853 -4.58210144 152.29211853 -4.86320496 153.43983459 C-5.34588645 155.41495816 -5.82631338 157.39063231 -6.30656433 159.36634827 C-7.06828308 162.12025452 -7.06828308 162.12025452 -8.06828308 163.12025452 C-9.51118095 163.21321267 -10.95858093 163.23771965 -12.40446472 163.23377991 C-13.78578331 163.23366661 -13.78578331 163.23366661 -15.19500732 163.23355103 C-16.19603989 163.22838974 -17.19707245 163.22322845 -18.22843933 163.21791077 C-19.24804245 163.21649582 -20.26764557 163.21508087 -21.31814575 163.21362305 C-24.58905415 163.20800548 -27.85989521 163.19545002 -31.13078308 163.18275452 C-33.34237064 163.17774178 -35.55395926 163.17317848 -37.76554871 163.16908264 C-43.19981665 163.15803035 -48.63404506 163.14127515 -54.06828308 163.12025452 C-52.89591339 155.62032259 -51.50510472 148.24134769 -49.69328308 140.87025452 C-49.47341736 139.96186829 -49.25355164 139.05348206 -49.02702332 138.11756897 C-48.37954115 135.45043059 -47.72556138 132.78499394 -47.06828308 130.12025452 C-46.80893982 129.06813782 -46.80893982 129.06813782 -46.5443573 127.99476624 C-45.39977275 123.36635972 -44.2347572 118.74317565 -43.06828308 114.12025452 C-36.25572797 87.09857025 -29.58765868 60.03752212 -23.3634491 32.87367249 C-17.62985343 7.98720049 -17.62985343 7.98720049 -8.06828308 1.12025452 C-5.07696142 0.1231473 -3.12263354 -0.00315736 0 0 Z " fill="#1C2427" transform="translate(162.0682830810547,257.87974548339844)"/>
<path d="M0 0 C3.44097346 0.56316093 4.81325927 1.52385488 6.953125 4.24609375 C7.75327026 5.24842041 7.75327026 5.24842041 8.56958008 6.27099609 C9.12411865 6.98594238 9.67865723 7.70088867 10.25 8.4375 C10.82194092 9.16018066 11.39388184 9.88286133 11.9831543 10.62744141 C13.12892746 12.07577105 14.27116091 13.52690869 15.40966797 14.98095703 C16.79714537 16.74246119 18.2033376 18.48415535 19.62890625 20.21484375 C20.34949219 21.09269531 21.07007813 21.97054688 21.8125 22.875 C22.75029297 24.01582031 22.75029297 24.01582031 23.70703125 25.1796875 C25 27 25 27 25 29 C25.66 29 26.32 29 27 29 C29 32 29 32 28.6875 34.5625 C28 37 28 37 27 39 C26.34 39 25.68 39 25 39 C24.76410156 39.69738281 24.52820313 40.39476562 24.28515625 41.11328125 C22.75196944 44.5571264 20.74311884 47.20832959 18.4375 50.1875 C15.45571326 53.92771244 15.45571326 53.92771244 13 58 C12.34 58 11.68 58 11 58 C10.76023437 58.70640625 10.52046875 59.4128125 10.2734375 60.140625 C8.79072165 63.46991336 6.90315039 65.90415518 4.625 68.75 C-0.21163634 74.85453634 -4.68724114 81.17283554 -9.06396484 87.61425781 C-9.54816895 88.31518555 -10.03237305 89.01611328 -10.53125 89.73828125 C-10.95986328 90.36774658 -11.38847656 90.99721191 -11.83007812 91.64575195 C-12.21615234 92.09265381 -12.60222656 92.53955566 -13 93 C-13.66 93 -14.32 93 -15 93 C-15.20625 93.66 -15.4125 94.32 -15.625 95 C-17.58566958 99.27782455 -19.31187365 102.9532916 -23 106 C-27.35773155 107.11718312 -31.58083072 106.93318378 -36.0546875 106.78125 C-37.31137238 106.76993042 -38.56805725 106.75861084 -39.86282349 106.74694824 C-43.18879133 106.70982501 -46.51029235 106.63811186 -49.83502197 106.54931641 C-53.23337383 106.46716135 -56.63218926 106.43087466 -60.03125 106.390625 C-66.6887262 106.30251996 -73.34410546 106.16872886 -80 106 C-78.24237075 102.3278541 -76.07042424 99.34316839 -73.5625 96.125 C-73.12147949 95.55692627 -72.68045898 94.98885254 -72.22607422 94.40356445 C-69.49268842 90.88886743 -66.73440492 87.3939084 -63.97558594 83.89916992 C-59.52045593 78.25294496 -55.12805605 72.56634783 -50.8125 66.8125 C-50.31073242 66.14371826 -49.80896484 65.47493652 -49.29199219 64.78588867 C-47.00663244 61.72758384 -44.74332063 58.65755701 -42.53515625 55.54296875 C-41.82230469 54.53878906 -41.10945313 53.53460938 -40.375 52.5 C-39.45847656 51.18515625 -39.45847656 51.18515625 -38.5234375 49.84375 C-38.02070313 49.2353125 -37.51796875 48.626875 -37 48 C-36.34 48 -35.68 48 -35 48 C-34.731875 47.2575 -34.46375 46.515 -34.1875 45.75 C-33.04723249 43.10938051 -31.90619694 41.14447156 -30 39 C-29.34 39 -28.68 39 -28 39 C-27.78472656 38.32324219 -27.56945312 37.64648438 -27.34765625 36.94921875 C-25.58046588 33.0818891 -23.11385228 30.09197392 -20.4375 26.8125 C-16.89124991 22.62424198 -16.89124991 22.62424198 -14 18 C-13.34 18 -12.68 18 -12 18 C-11.72929687 17.41992188 -11.45859375 16.83984375 -11.1796875 16.2421875 C-9.99909947 13.9982884 -8.67650689 12.12668506 -7.125 10.125 C-4.60621173 6.82835064 -2.26061302 3.47786619 0 0 Z " fill="#047833" transform="translate(279,300)"/>
<path d="M0 0 C0.74302872 0.01797638 1.48605743 0.03595276 2.25160217 0.05447388 C3.43753716 0.05337868 3.43753716 0.05337868 4.64743042 0.05226135 C7.2560988 0.05573994 9.86297303 0.09461144 12.47132874 0.13381958 C14.28164189 0.1431468 16.09196768 0.15026334 17.90229797 0.15525818 C22.66359902 0.17433524 27.42413558 0.22344197 32.18513489 0.27877808 C37.04475055 0.32995539 41.90448993 0.35276897 46.76429749 0.37796021 C56.29718517 0.43156015 65.82950585 0.51688143 75.36195374 0.62210083 C73.44934676 4.54233858 71.30188834 7.38817277 68.36195374 10.62210083 C67.70195374 10.62210083 67.04195374 10.62210083 66.36195374 10.62210083 C65.95976624 11.58116333 65.95976624 11.58116333 65.54945374 12.55960083 C64.36195374 14.62210083 64.36195374 14.62210083 61.36195374 15.62210083 C60.66044221 16.93743493 59.99669448 18.27327675 59.36195374 19.62210083 C57.86195374 21.37210083 57.86195374 21.37210083 56.36195374 22.62210083 C55.70195374 22.62210083 55.04195374 22.62210083 54.36195374 22.62210083 C54.10414124 23.19444458 53.84632874 23.76678833 53.58070374 24.35647583 C52.24829431 26.83339078 50.71139255 28.75621743 48.86195374 30.87210083 C47.94929749 31.93171021 47.94929749 31.93171021 47.01820374 33.01272583 C45.36195374 34.62210083 45.36195374 34.62210083 43.36195374 34.62210083 C43.36195374 35.28210083 43.36195374 35.94210083 43.36195374 36.62210083 C41.98695374 38.24710083 41.98695374 38.24710083 40.36195374 39.62210083 C39.70195374 39.62210083 39.04195374 39.62210083 38.36195374 39.62210083 C38.36195374 40.28210083 38.36195374 40.94210083 38.36195374 41.62210083 C37.70195374 41.62210083 37.04195374 41.62210083 36.36195374 41.62210083 C36.36195374 42.28210083 36.36195374 42.94210083 36.36195374 43.62210083 C34.7356897 45.00442526 33.06945353 46.34147598 31.36195374 47.62210083 C31.03195374 46.63210083 30.70195374 45.64210083 30.36195374 44.62210083 C31.02195374 43.96210083 31.68195374 43.30210083 32.36195374 42.62210083 C33.02195374 41.63210083 33.68195374 40.64210083 34.36195374 39.62210083 C33.37195374 38.63210083 32.38195374 37.64210083 31.36195374 36.62210083 C32.35195374 36.62210083 33.34195374 36.62210083 34.36195374 36.62210083 C36.16371029 34.88772321 36.16371029 34.88772321 37.86195374 32.68460083 C41.04388145 28.72812493 41.04388145 28.72812493 44.36195374 27.62210083 C44.85695374 28.61210083 44.85695374 28.61210083 45.36195374 29.62210083 C45.69195374 28.96210083 46.02195374 28.30210083 46.36195374 27.62210083 C47.35195374 27.62210083 48.34195374 27.62210083 49.36195374 27.62210083 C49.36195374 25.97210083 49.36195374 24.32210083 49.36195374 22.62210083 C49.98070374 22.33335083 50.59945374 22.04460083 51.23695374 21.74710083 C53.49521139 20.68490041 53.49521139 20.68490041 55.36195374 18.62210083 C56.00447724 16.55336049 56.00447724 16.55336049 56.36195374 14.62210083 C57.35195374 14.62210083 58.34195374 14.62210083 59.36195374 14.62210083 C59.69195374 13.63210083 60.02195374 12.64210083 60.36195374 11.62210083 C62.42445374 10.43460083 62.42445374 10.43460083 64.36195374 9.62210083 C63.86695374 6.15710083 63.86695374 6.15710083 63.36195374 2.62210083 C55.17266509 2.7068087 46.98358567 2.80180739 38.79457188 2.90962791 C34.99130399 2.95938697 31.18806116 3.00571718 27.38465881 3.04397583 C23.70813446 3.08108831 20.03183087 3.12751515 16.35549736 3.18016434 C14.95905909 3.19857142 13.56257375 3.2137288 12.16606331 3.22544479 C4.60594992 3.2910892 -2.32819649 3.62755111 -9.63804626 5.62210083 C-6.97850638 1.27243514 -5.13409468 0.05136239 0 0 Z " fill="#359543" transform="translate(288.63804626464844,52.377899169921875)"/>
<path d="M0 0 C0.33 0 0.66 0 1 0 C1 37.62 1 75.24 1 114 C1.99 114 2.98 114 4 114 C3.938125 112.8553125 3.938125 112.8553125 3.875 111.6875 C4 109 4 109 6 106 C6.66 106.33 7.32 106.66 8 107 C8.33 105.35 8.66 103.7 9 102 C10.485 101.505 10.485 101.505 12 101 C10.40376856 105.39383706 8.21975667 109.28995807 5.875 113.3125 C5.50246094 113.95767578 5.12992188 114.60285156 4.74609375 115.26757812 C3.83367787 116.84675945 2.91724491 118.42361864 2 120 C1.01 119.67 0.02 119.34 -1 119 C-1.03077533 108.35417747 -1.05103852 97.70835994 -1.0625 87.0625 C-1.06378403 85.87830601 -1.06378403 85.87830601 -1.06509399 84.6701889 C-1.09212539 56.43544262 -0.76494527 28.22566676 0 0 Z " fill="#4E9666" transform="translate(126,161)"/>
<path d="M0 0 C1.70884005 1.62339805 3.37446717 3.29319053 5 5 C5 5.66 5 6.32 5 7 C1.48675808 8.17108064 -1.66365058 8.13229358 -5.31713867 8.11352539 C-6.42970284 8.11374443 -6.42970284 8.11374443 -7.56474304 8.1139679 C-10.01584805 8.11327134 -12.46687702 8.10549097 -14.91796875 8.09765625 C-16.61761941 8.09579116 -18.31727061 8.09436768 -20.016922 8.09336853 C-24.49019861 8.08955055 -28.96344276 8.07972638 -33.43670654 8.06866455 C-38.00141969 8.05843499 -42.56613807 8.0538676 -47.13085938 8.04882812 C-56.08725385 8.03810349 -65.04362422 8.02103567 -74 8 C-74 7.67 -74 7.34 -74 7 C-66.56605935 6.71140688 -59.13196468 6.42705592 -51.69775391 6.14550781 C-49.17427996 6.04945529 -46.65084136 5.95246915 -44.12744141 5.85449219 C-40.478281 5.7129735 -36.82901587 5.57461403 -33.1796875 5.4375 C-32.00758728 5.39230225 -30.83548706 5.34710449 -29.62786865 5.30053711 C-22.52478766 5.041566 -15.47927062 4.95047533 -8.37548828 5.2578125 C-5.47575129 4.94310312 -4.8281471 4.19457166 -3 2 C-2.01 1.34 -1.02 0.68 0 0 Z " fill="#64B682" transform="translate(315,240)"/>
<path d="M0 0 C0.66 0.66 1.32 1.32 2 2 C-3.1836392 10.12604309 -8.43023707 18.20291087 -13.81201172 26.19946289 C-16.05306899 29.51203735 -16.05306899 29.51203735 -18 33 C-18.66 33 -19.32 33 -20 33 C-20.226875 33.66 -20.45375 34.32 -20.6875 35 C-22.39699723 38.90742225 -24.52468936 42.52421538 -27 46 C-27.33 46 -27.66 46 -28 46 C-28 43.36 -28 40.72 -28 38 C-28.66 38 -29.32 38 -30 38 C-29.67 37.01 -29.34 36.02 -29 35 C-28.2575 34.95875 -27.515 34.9175 -26.75 34.875 C-22.92015737 33.65641371 -22.13106742 31.29971729 -20 28 C-17.75 27.125 -17.75 27.125 -16 27 C-15.67 25.35 -15.34 23.7 -15 22 C-14.34 22 -13.68 22 -13 22 C-13.04125 21.0925 -13.0825 20.185 -13.125 19.25 C-13.00468444 16.1217954 -12.6085292 14.61385994 -11 12 C-10.67 12.66 -10.34 13.32 -10 14 C-9.01 14 -8.02 14 -7 14 C-7.04125 13.071875 -7.0825 12.14375 -7.125 11.1875 C-7 8 -7 8 -5 5 C-4.34 5 -3.68 5 -3 5 C-3 4.01 -3 3.02 -3 2 C-2.01 2 -1.02 2 0 2 C0 1.34 0 0.68 0 0 Z " fill="#479F53" transform="translate(399,206)"/>
<path d="M0 0 C0.66 0.33 1.32 0.66 2 1 C1.50628906 1.33773437 1.01257813 1.67546875 0.50390625 2.0234375 C-0.45708984 2.69246094 -0.45708984 2.69246094 -1.4375 3.375 C-2.39462891 4.03628906 -2.39462891 4.03628906 -3.37109375 4.7109375 C-5.13740928 5.92160853 -5.13740928 5.92160853 -6 8 C-6.886875 7.9175 -7.77375 7.835 -8.6875 7.75 C-12.76843758 8.05799529 -13.87178238 9.48216631 -17 12 C-20.8125 12.75 -20.8125 12.75 -24 13 C-23.67 13.99 -23.34 14.98 -23 16 C-26.99560608 18.83022097 -30.42737323 17.76210446 -35 17 C-35.33 17.66 -35.66 18.32 -36 19 C-36.99 18.34 -37.98 17.68 -39 17 C-31.57870053 13.47081543 -24.12927979 10.18457143 -16.47753906 7.1965332 C-11.56907537 5.2678424 -6.81098062 3.10043447 -2.07421875 0.78515625 C-1.38972656 0.52605469 -0.70523438 0.26695313 0 0 Z " fill="#6FBA6D" transform="translate(445,108)"/>
<path d="M0 0 C1.32 0 2.64 0 4 0 C4 0.66 4 1.32 4 2 C4.928125 1.938125 5.85625 1.87625 6.8125 1.8125 C10 2 10 2 11.875 3.5 C12.24625 3.995 12.6175 4.49 13 5 C12.01 6.32 11.02 7.64 10 9 C10.61875 9.309375 11.2375 9.61875 11.875 9.9375 C13.25 10.625 14.625 11.3125 16 12 C16.33 8.7 16.66 5.4 17 2 C17.33 2 17.66 2 18 2 C18.02693575 4.12493141 18.04636628 6.24995912 18.0625 8.375 C18.07410156 9.55835938 18.08570313 10.74171875 18.09765625 11.9609375 C18 15 18 15 17 17 C15.0625 16.1875 15.0625 16.1875 13 15 C12.67 14.01 12.34 13.02 12 12 C11.34 12 10.68 12 10 12 C8.7109375 10.5390625 8.7109375 10.5390625 7.375 8.625 C6.92898438 7.99851563 6.48296875 7.37203125 6.0234375 6.7265625 C5 5 5 5 5 3 C4.01 2.67 3.02 2.34 2 2 C0.02 4.97 0.02 4.97 -2 8 C-2.144375 7.401875 -2.28875 6.80375 -2.4375 6.1875 C-2.8872439 4.43849596 -3.42892341 2.71322977 -4 1 C-2.68 1.33 -1.36 1.66 0 2 C0 1.34 0 0.68 0 0 Z " fill="#49AF49" transform="translate(436,152)"/>
<path d="M0 0 C0.74302872 0.01797638 1.48605743 0.03595276 2.25160217 0.05447388 C3.43753716 0.05337868 3.43753716 0.05337868 4.64743042 0.05226135 C7.2560988 0.05573994 9.86297303 0.09461144 12.47132874 0.13381958 C14.28164189 0.1431468 16.09196768 0.15026334 17.90229797 0.15525818 C22.66359902 0.17433524 27.42413558 0.22344197 32.18513489 0.27877808 C37.04475055 0.32995539 41.90448993 0.35276897 46.76429749 0.37796021 C56.29718517 0.43156015 65.82950585 0.51688143 75.36195374 0.62210083 C74.70195374 1.94210083 74.04195374 3.26210083 73.36195374 4.62210083 C72.86695374 3.13710083 72.86695374 3.13710083 72.36195374 1.62210083 C48.27195374 1.62210083 24.18195374 1.62210083 -0.63804626 1.62210083 C-0.63804626 2.28210083 -0.63804626 2.94210083 -0.63804626 3.62210083 C-3.60804626 4.28210083 -6.57804626 4.94210083 -9.63804626 5.62210083 C-6.97850638 1.27243514 -5.13409468 0.05136239 0 0 Z " fill="#5CA369" transform="translate(288.63804626464844,52.377899169921875)"/>
<path d="M0 0 C-0.78375 0.2475 -1.5675 0.495 -2.375 0.75 C-5.44998921 2.21428057 -5.86889257 2.86770251 -7 6 C-7.68960962 7.99220557 -8.36079057 9.99105606 -9 12 C-8.01 12.33 -7.02 12.66 -6 13 C-6.33 13.66 -6.66 14.32 -7 15 C-7.66 15 -8.32 15 -9 15 C-8.54625 15.7425 -8.0925 16.485 -7.625 17.25 C-6 20 -6 20 -5.125 22 C-3.99501609 24.24755117 -3.99501609 24.24755117 -1.4375 26.375 C1.32281376 29.34764558 1.72254985 31.02321445 2 35 C-1.64813364 31.4944222 -4.76940717 27.8750037 -7.8125 23.8125 C-8.99779297 22.24435547 -8.99779297 22.24435547 -10.20703125 20.64453125 C-12 18 -12 18 -12 16 C-12.66 16 -13.32 16 -14 16 C-12.58010715 12.25912846 -10.90233408 8.76931806 -9 5.25 C-8.2265625 3.80367188 -8.2265625 3.80367188 -7.4375 2.328125 C-5.18622118 -1.31796787 -3.84412165 -1.1532365 0 0 Z " fill="#1D7A42" transform="translate(286,260)"/>
<path d="M0 0 C0 3.61029169 -0.96092582 6.55806676 -2 10 C0.94695034 10.84069555 3.61631919 11.14646768 6.67675781 11.20532227 C7.59741028 11.22526749 8.51806274 11.24521271 9.46661377 11.26576233 C10.45216248 11.28247482 11.43771118 11.29918732 12.453125 11.31640625 C13.46848328 11.33718735 14.48384155 11.35796844 15.52996826 11.37937927 C18.76991073 11.44470597 22.00993348 11.50368137 25.25 11.5625 C27.44792493 11.60570126 29.64584178 11.64931607 31.84375 11.69335938 C37.22908206 11.80037007 42.6144938 11.90216773 48 12 C48 12.33 48 12.66 48 13 C29.19 13 10.38 13 -9 13 C-7.31626595 9.6325319 -5.68918436 7.16415809 -3.375 4.25 C-2.74335938 3.45078125 -2.11171875 2.6515625 -1.4609375 1.828125 C-0.97882813 1.22484375 -0.49671875 0.6215625 0 0 Z " fill="#68A882" transform="translate(208,393)"/>
<path d="M0 0 C0.66 0 1.32 0 2 0 C2.8125 1.6875 2.8125 1.6875 3 4 C0.75 6.5625 0.75 6.5625 -2 9 C-2.598125 9.598125 -3.19625 10.19625 -3.8125 10.8125 C-4.204375 11.204375 -4.59625 11.59625 -5 12 C-5.99 11.67 -6.98 11.34 -8 11 C-8.144375 11.5775 -8.28875 12.155 -8.4375 12.75 C-9.21875 15.875 -9.21875 15.875 -10 19 C-10.598125 19.103125 -11.19625 19.20625 -11.8125 19.3125 C-14.09240718 19.82969347 -14.09240718 19.82969347 -15.5 21.625 C-16.2425 22.305625 -16.2425 22.305625 -17 23 C-19.09375 22.5859375 -19.09375 22.5859375 -21 22 C-20.3498291 21.35768433 -20.3498291 21.35768433 -19.68652344 20.70239258 C-17.70499954 18.74178536 -15.72747941 16.7771861 -13.75 14.8125 C-13.06808594 14.13896484 -12.38617188 13.46542969 -11.68359375 12.77148438 C-8.83435252 9.93607441 -6.13498552 7.17096675 -3.640625 4.01171875 C-3.09921875 3.34785156 -2.5578125 2.68398437 -2 2 C-1.34 2 -0.68 2 0 2 C0 1.34 0 0.68 0 0 Z " fill="#3D965B" transform="translate(261,75)"/>
<path d="M0 0 C0.33 0.99 0.66 1.98 1 3 C23.44 3 45.88 3 69 3 C67.95206337 7.19174654 67.08236365 8.21592961 64 11 C63.61781233 9.34385343 63.28604898 7.67542976 63 6 C63.33 5.67 63.66 5.34 64 5 C32.32 4.505 32.32 4.505 0 4 C0 2.68 0 1.36 0 0 Z " fill="#4D5154" transform="translate(178,319)"/>
<path d="M0 0 C1.485 0.99 1.485 0.99 3 2 C3 2.66 3 3.32 3 4 C3.99 4.33 4.98 4.66 6 5 C6 5.66 6 6.32 6 7 C6.66 7 7.32 7 8 7 C9.58533702 8.71332754 11.09541215 10.49689047 12.5625 12.3125 C13.36816406 13.29863281 14.17382812 14.28476563 15.00390625 15.30078125 C17 18 17 18 18 21 C18.66 21 19.32 21 20 21 C20 21.66 20 22.32 20 23 C20.66 23 21.32 23 22 23 C21.67 23.66 21.34 24.32 21 25 C20.34 25 19.68 25 19 25 C19 24.01 19 23.02 19 22 C17.68 22.33 16.36 22.66 15 23 C11 17.25 11 17.25 11 15 C10.01 15.33 9.02 15.66 8 16 C5.8125 15.5625 5.8125 15.5625 4 15 C4 14.34 4 13.68 4 13 C4.66 13 5.32 13 6 13 C6 11.35 6 9.7 6 8 C4.68 7.67 3.36 7.34 2 7 C1.34 4.69 0.68 2.38 0 0 Z " fill="#56A567" transform="translate(293,215)"/>
<path d="M0 0 C0.32644414 4.16216275 0.40650982 6.36313462 -1.875 9.9375 C-4 12 -4 12 -6 12 C-6 12.66 -6 13.32 -6 14 C-6.66 14 -7.32 14 -8 14 C-8 14.66 -8 15.32 -8 16 C-9.62626404 17.38232443 -11.2925002 18.71937515 -13 20 C-13.33 19.01 -13.66 18.02 -14 17 C-13.34 16.34 -12.68 15.68 -12 15 C-11.34 14.01 -10.68 13.02 -10 12 C-10.99 11.01 -11.98 10.02 -13 9 C-12.01 9 -11.02 9 -10 9 C-8.16263837 7.26838038 -8.16263837 7.26838038 -6.4375 5.0625 C-2.28571429 0 -2.28571429 0 0 0 Z " fill="#178D26" transform="translate(333,80)"/>
<path d="M0 0 C1.32 1.32 2.64 2.64 4 4 C3.01 4.66 2.02 5.32 1 6 C-0.19232613 8.05003955 -0.19232613 8.05003955 -1 10 C-1.33 9.34 -1.66 8.68 -2 8 C-2.928125 9.485 -2.928125 9.485 -3.875 11 C-4.57625 11.99 -5.2775 12.98 -6 14 C-6.66 14 -7.32 14 -8 14 C-8.33 14.66 -8.66 15.32 -9 16 C-12.0625 16.625 -12.0625 16.625 -15 17 C-13.67879172 14.06769807 -12.25361803 12.01335101 -9.9609375 9.765625 C-9.38085938 9.19199219 -8.80078125 8.61835937 -8.203125 8.02734375 C-7.59984375 7.44082031 -6.9965625 6.85429688 -6.375 6.25 C-5.76398438 5.64800781 -5.15296875 5.04601563 -4.5234375 4.42578125 C-3.02011376 2.94594695 -1.51065144 1.47235324 0 0 Z " fill="#52A56A" transform="translate(278,58)"/>
<path d="M0 0 C1.66666667 1.66666667 3.33333333 3.33333333 5 5 C5.8971875 5.8353125 5.8971875 5.8353125 6.8125 6.6875 C8 8 8 8 8 10 C8.66 10 9.32 10 10 10 C10.2475 10.78375 10.495 11.5675 10.75 12.375 C12.15389099 15.32317108 13.00675737 15.9024777 16 17 C15 19 15 19 13 20 C12.01 19.34 11.02 18.68 10 18 C10 17.34 10 16.68 10 16 C9.34 15.67 8.68 15.34 8 15 C7.731875 14.4225 7.46375 13.845 7.1875 13.25 C6.0247898 10.77870124 6.0247898 10.77870124 3.5 8.5 C1.32423453 6.32423453 -0.00797315 4.87687787 -1 2 C-0.67 1.34 -0.34 0.68 0 0 Z " fill="#4C9C62" transform="translate(256,172)"/>
<path d="M0 0 C1.32 0 2.64 0 4 0 C4.16653036 4.32978932 4.15551178 7.22785439 2 11 C2 11.99 2 12.98 2 14 C1.01 14.495 1.01 14.495 0 15 C-0.33 14.34 -0.66 13.68 -1 13 C-1.99 14.485 -1.99 14.485 -3 16 C-5.625 16.1875 -5.625 16.1875 -8 16 C-5.37288552 11.05484333 -1.73354706 7.12224511 2 3 C1.34 2.01 0.68 1.02 0 0 Z " fill="#2CA02D" transform="translate(412,136)"/>
<path d="M0 0 C-0.63808594 0.62648438 -1.27617187 1.25296875 -1.93359375 1.8984375 C-2.75988281 2.71570313 -3.58617187 3.53296875 -4.4375 4.375 C-5.26121094 5.18710938 -6.08492188 5.99921875 -6.93359375 6.8359375 C-9.03434672 8.82348515 -9.03434672 8.82348515 -10 11 C-10.66 11 -11.32 11 -12 11 C-12.33 11.99 -12.66 12.98 -13 14 C-13.66 13.01 -14.32 12.02 -15 11 C-14.360625 10.443125 -13.72125 9.88625 -13.0625 9.3125 C-10.76728568 6.73907788 -10.52495189 5.32469533 -10 2 C-6.72062432 -1.27937568 -4.29494642 -1.19503739 0 0 Z " fill="#349446" transform="translate(315,106)"/>
<path d="M0 0 C0.6875 1.75 0.6875 1.75 1 4 C-0.25 6.25 -0.25 6.25 -2 8 C-2.99 8 -3.98 8 -5 8 C-5.268125 8.7425 -5.53625 9.485 -5.8125 10.25 C-6.95276751 12.89061949 -8.09380306 14.85552844 -10 17 C-10.66 17 -11.32 17 -12 17 C-12.061875 17.61875 -12.12375 18.2375 -12.1875 18.875 C-13 21 -13 21 -15.5625 22.25 C-16.366875 22.4975 -17.17125 22.745 -18 23 C-17.505 21.515 -17.505 21.515 -17 20 C-16.34 20 -15.68 20 -15 20 C-14.6596875 19.2265625 -14.6596875 19.2265625 -14.3125 18.4375 C-12.51782382 15.10452995 -10.50034985 11.85296329 -8 9 C-7.34 9 -6.68 9 -6 9 C-5.7525 8.443125 -5.505 7.88625 -5.25 7.3125 C-3.78393985 4.60028873 -1.97010529 2.36412635 0 0 Z " fill="#66B16F" transform="translate(393,164)"/>
<path d="M0 0 C0 1.32 0 2.64 0 4 C-0.99 4 -1.98 4 -3 4 C-3 4.99 -3 5.98 -3 7 C-0.03 7 2.94 7 6 7 C6 7.99 6 8.98 6 10 C-0.00477279 9.35083537 -5.400781 7.14204997 -11 5 C-7.41907805 1.297347 -5.29234127 0 0 0 Z " fill="#2B9830" transform="translate(406,126)"/>
<path d="M0 0 C-1.32 0.33 -2.64 0.66 -4 1 C-3.67 1.99 -3.34 2.98 -3 4 C-6.99560608 6.83022097 -10.42737323 5.76210446 -15 5 C-15.33 5.66 -15.66 6.32 -16 7 C-16.99 6.34 -17.98 5.68 -19 5 C-4.23731884 -2.11865942 -4.23731884 -2.11865942 0 0 Z " fill="#46A947" transform="translate(425,120)"/>
<path d="M0 0 C0.734375 1.68359375 0.734375 1.68359375 1 4 C-0.546875 6.47265625 -0.546875 6.47265625 -2.75 9.0625 C-3.82507813 10.34833984 -3.82507813 10.34833984 -4.921875 11.66015625 C-7 14 -7 14 -8.703125 15.62109375 C-10.26131586 17.0846208 -10.26131586 17.0846208 -11 20 C-11.99 19.67 -12.98 19.34 -14 19 C-12.71606032 16.2682214 -11.30918785 13.94430645 -9.43359375 11.58203125 C-8.94826172 10.96779297 -8.46292969 10.35355469 -7.96289062 9.72070312 C-7.45951172 9.09099609 -6.95613281 8.46128906 -6.4375 7.8125 C-5.67663086 6.85053711 -5.67663086 6.85053711 -4.90039062 5.86914062 C-1.18849649 1.18849649 -1.18849649 1.18849649 0 0 Z " fill="#429163" transform="translate(223,374)"/>
<path d="M0 0 C-2.33214148 1.20628008 -4.49642139 2.1654738 -7 3 C-7.33 3.66 -7.66 4.32 -8 5 C-10.0625 5.625 -10.0625 5.625 -12 6 C-11.7525 6.5775 -11.505 7.155 -11.25 7.75 C-11.1675 8.4925 -11.085 9.235 -11 10 C-12.8125 12.25 -12.8125 12.25 -15 14 C-15.66 14 -16.32 14 -17 14 C-17.33 14.66 -17.66 15.32 -18 16 C-17.02476214 9.17333501 -13.80521276 5.56233015 -8.71875 1.234375 C-5.56440175 -1.03102056 -3.56982599 -1.10787703 0 0 Z " fill="#54585B" transform="translate(161,259)"/>
<path d="M0 0 C0.66 0 1.32 0 2 0 C1.125 4.75 1.125 4.75 0 7 C0.66 7 1.32 7 2 7 C1.67 8.65 1.34 10.3 1 12 C0.67 11.34 0.34 10.68 0 10 C-4.455 11.485 -4.455 11.485 -9 13 C-7.47246003 9.94492007 -6.19136095 7.55658777 -4 5 C-3.34 5 -2.68 5 -2 5 C-1.34 3.35 -0.68 1.7 0 0 Z " fill="#2F9841" transform="translate(366,196)"/>
<path d="M0 0 C0.99 0.66 1.98 1.32 3 2 C2.67 2.66 2.34 3.32 2 4 C3.32 4.33 4.64 4.66 6 5 C2.47872239 9.5929708 -1.57747597 10.11941917 -7 11 C-7.33 10.01 -7.66 9.02 -8 8 C-6.8553125 7.4121875 -6.8553125 7.4121875 -5.6875 6.8125 C-2.75283929 4.83331022 -1.59873102 3.1133183 0 0 Z " fill="#248F35" transform="translate(314,96)"/>
<path d="M0 0 C-0.66 7.92 -1.32 15.84 -2 24 C-2.33 24 -2.66 24 -3 24 C-3 17.07 -3 10.14 -3 3 C-4.98 3.66 -6.96 4.32 -9 5 C-11.375 4.625 -11.375 4.625 -13 4 C-11.58774074 3.32404685 -10.16997095 2.65959941 -8.75 2 C-7.56664062 1.443125 -7.56664062 1.443125 -6.359375 0.875 C-4 0 -4 0 0 0 Z " fill="#64B964" transform="translate(460,103)"/>
<path d="M0 0 C0.33 0.66 0.66 1.32 1 2 C0.0625 4.125 0.0625 4.125 -1 6 C-1.33 6 -1.66 6 -2 6 C-2.66 7.32 -3.32 8.64 -4 10 C-4.66 10 -5.32 10 -6 10 C-6.33 10.99 -6.66 11.98 -7 13 C-8.25 16.125 -8.25 16.125 -10 19 C-12.6875 19.875 -12.6875 19.875 -15 20 C-13.68 17.69 -12.36 15.38 -11 13 C-10.34 13 -9.68 13 -9 13 C-8.73316406 12.42636719 -8.46632813 11.85273438 -8.19140625 11.26171875 C-6.95529602 8.91513571 -5.54593672 6.91888027 -3.9375 4.8125 C-3.41027344 4.11769531 -2.88304687 3.42289062 -2.33984375 2.70703125 C-1 1 -1 1 0 0 Z " fill="#509B70" transform="translate(276,305)"/>
<path d="M0 0 C0.99 0 1.98 0 3 0 C1.57667134 4.05611794 -0.38591603 7.17537252 -2.9375 10.625 C-3.62714844 11.56601563 -4.31679688 12.50703125 -5.02734375 13.4765625 C-6.59656146 15.48391823 -8.14338323 17.26560565 -10 19 C-10.625 16.625 -10.625 16.625 -11 14 C-10.34 13.34 -9.68 12.68 -9 12 C-8.01 12 -7.02 12 -6 12 C-6 10.68 -6 9.36 -6 8 C-5.01 8 -4.02 8 -3 8 C-3 6.68 -3 5.36 -3 4 C-2.34 4 -1.68 4 -1 4 C-0.67 2.68 -0.34 1.36 0 0 Z " fill="#60AE62" transform="translate(411,188)"/>
<path d="M0 0 C0 3.96 0 7.92 0 12 C-0.33 12 -0.66 12 -1 12 C-1.33 9.69 -1.66 7.38 -2 5 C-3.99203598 4.911357 -3.99203598 4.911357 -5.8125 5.5 C-8.26502616 6.06057741 -10.49237135 6.06965635 -13 6 C-13 5.34 -13 4.68 -13 4 C-11.77779263 3.32065893 -10.54681549 2.65708477 -9.3125 2 C-8.62800781 1.62875 -7.94351562 1.2575 -7.23828125 0.875 C-5 0 -5 0 0 0 Z " fill="#2AA12B" transform="translate(457,106)"/>
<path d="M0 0 C0.226875 0.556875 0.45375 1.11375 0.6875 1.6875 C1.95483587 4.1926946 1.95483587 4.1926946 4.5 6.3125 C7.54925681 9.59045107 8.07126269 11.69403611 9 16 C8.34 16.33 7.68 16.66 7 17 C5 14.33333333 3 11.66666667 1 9 C0.43925781 8.31421875 -0.12148438 7.6284375 -0.69921875 6.921875 C-2 5 -2 5 -2 2 C-1.34 2 -0.68 2 0 2 C0 1.34 0 0.68 0 0 Z " fill="#3C905E" transform="translate(312,320)"/>
<path d="M0 0 C3.91939465 3.80411834 7.49102731 7.81576108 11 12 C10.67 12.66 10.34 13.32 10 14 C7.5625 13.3125 7.5625 13.3125 5 12 C4.1875 9.375 4.1875 9.375 4 7 C3.34 7 2.68 7 2 7 C2 6.34 2 5.68 2 5 C0.68 5.33 -0.64 5.66 -2 6 C-2 4.68 -2 3.36 -2 2 C-1.34 2 -0.68 2 0 2 C0 1.34 0 0.68 0 0 Z " fill="#2E9357" transform="translate(285,305)"/>
<path d="M0 0 C3.48872415 1.16290805 4.09976864 2.13967609 6.1875 5.0625 C6.71730469 5.79597656 7.24710937 6.52945313 7.79296875 7.28515625 C8.19128906 7.85105469 8.58960938 8.41695312 9 9 C8.34 9.66 7.68 10.32 7 11 C6.67 10.34 6.34 9.68 6 9 C5.21625 9.020625 4.4325 9.04125 3.625 9.0625 C1 9 1 9 -1 8 C-1.04241723 5.66705225 -1.04092937 3.33297433 -1 1 C-0.67 0.67 -0.34 0.34 0 0 Z " fill="#37954F" transform="translate(282,203)"/>
<path d="M0 0 C0 0.99 0 1.98 0 3 C-0.66 3 -1.32 3 -2 3 C-2 3.66 -2 4.32 -2 5 C-2.99 5 -3.98 5 -5 5 C-5 5.99 -5 6.98 -5 8 C-6.98 8 -8.96 8 -11 8 C-11 7.01 -11 6.02 -11 5 C-10.01 5 -9.02 5 -8 5 C-8 3.68 -8 2.36 -8 1 C-5.10765685 0.17361624 -3.11257569 0 0 0 Z " fill="#229C27" transform="translate(414,125)"/>
<path d="M0 0 C0.33 0.99 0.66 1.98 1 3 C0.67 3.66 0.34 4.32 0 5 C-0.66 5 -1.32 5 -2 5 C-2.18175781 5.62648438 -2.36351562 6.25296875 -2.55078125 6.8984375 C-2.80214844 7.71570313 -3.05351562 8.53296875 -3.3125 9.375 C-3.55613281 10.18710937 -3.79976562 10.99921875 -4.05078125 11.8359375 C-5 14 -5 14 -8 16 C-8.99 16 -9.98 16 -11 16 C-9.55049595 11.64352355 -7.32252888 8.68242711 -4.375 5.1875 C-3.55773437 4.21167969 -2.74046875 3.23585938 -1.8984375 2.23046875 C-1.27195313 1.49441406 -0.64546875 0.75835937 0 0 Z " fill="#428B62" transform="translate(235,358)"/>
<path d="M0 0 C0.33 0.66 0.66 1.32 1 2 C0.22729492 3.78759766 0.22729492 3.78759766 -1.01953125 5.9140625 C-1.46490234 6.67460937 -1.91027344 7.43515625 -2.36914062 8.21875 C-2.84544922 9.0128125 -3.32175781 9.806875 -3.8125 10.625 C-4.27720703 11.42679687 -4.74191406 12.22859375 -5.22070312 13.0546875 C-7.83545064 17.46637054 -7.83545064 17.46637054 -9 19 C-9.66 19 -10.32 19 -11 19 C-10.67 17.02 -10.34 15.04 -10 13 C-9.01 13 -8.02 13 -7 13 C-7.04125 12.236875 -7.0825 11.47375 -7.125 10.6875 C-7 8 -7 8 -5 5 C-4.34 5.33 -3.68 5.66 -3 6 C-2.87625 5.195625 -2.7525 4.39125 -2.625 3.5625 C-2.41875 2.716875 -2.2125 1.87125 -2 1 C-1.34 0.67 -0.68 0.34 0 0 Z " fill="#469264" transform="translate(137,262)"/>
<path d="M0 0 C-1.375 2 -1.375 2 -3 4 C-3.66 4 -4.32 4 -5 4 C-5.268125 4.598125 -5.53625 5.19625 -5.8125 5.8125 C-6.98493467 7.97224808 -8.19369282 9.35790256 -10 11 C-10.99 10.67 -11.98 10.34 -13 10 C-5.88721805 -1.96240602 -5.88721805 -1.96240602 0 0 Z " fill="#3A9951" transform="translate(301,120)"/>
<path d="M0 0 C1.32 0.66 2.64 1.32 4 2 C2.88096454 3.81618856 1.75458716 5.62785526 0.625 7.4375 C-0.00148438 8.44683594 -0.62796875 9.45617187 -1.2734375 10.49609375 C-3 13 -3 13 -5 14 C-5 7 -5 7 -3 4 C-2.01 4 -1.02 4 0 4 C0 2.68 0 1.36 0 0 Z " fill="#39984E" transform="translate(362,258)"/>
<path d="M0 0 C0.66 0 1.32 0 2 0 C2.8125 1.6875 2.8125 1.6875 3 4 C0.75 6.5625 0.75 6.5625 -2 9 C-2.598125 9.598125 -3.19625 10.19625 -3.8125 10.8125 C-4.204375 11.204375 -4.59625 11.59625 -5 12 C-5.66 11.67 -6.32 11.34 -7 11 C-6.42676569 7.13066838 -4.61046448 4.84777943 -2 2 C-1.34 2 -0.68 2 0 2 C0 1.34 0 0.68 0 0 Z " fill="#167C33" transform="translate(261,75)"/>
<path d="M0 0 C1.485 0.99 1.485 0.99 3 2 C3 2.66 3 3.32 3 4 C3.99 4.33 4.98 4.66 6 5 C6 5.66 6 6.32 6 7 C6.66 7 7.32 7 8 7 C8 8.98 8 10.96 8 13 C8.99 13 9.98 13 11 13 C11 13.66 11 14.32 11 15 C7.86650268 16.04449911 7.01031744 15.93423645 4 15 C4 14.34 4 13.68 4 13 C4.66 13 5.32 13 6 13 C6 11.35 6 9.7 6 8 C4.68 7.67 3.36 7.34 2 7 C1.34 4.69 0.68 2.38 0 0 Z " fill="#137E31" transform="translate(293,215)"/>
<path d="M0 0 C0.33 0.99 0.66 1.98 1 3 C1.66 3.33 2.32 3.66 3 4 C2.67 5.65 2.34 7.3 2 9 C-0.31 9.33 -2.62 9.66 -5 10 C-5 4.69520066 -3.4637943 3.81017373 0 0 Z " fill="#3EA149" transform="translate(374,187)"/>
<path d="M0 0 C0 3.61029169 -0.96092582 6.55806676 -2 10 C-0.68 10.33 0.64 10.66 2 11 C-1.3 11.33 -4.6 11.66 -8 12 C-6.49087042 7.01987239 -3.44338151 3.75740058 0 0 Z " fill="#1E7B44" transform="translate(208,393)"/>
<path d="M0 0 C0.99 0 1.98 0 3 0 C1.18690997 3.77727089 -0.9073259 7.37269822 -3 11 C-3.66 11 -4.32 11 -5 11 C-5.33 11.66 -5.66 12.32 -6 13 C-6.66 11.35 -7.32 9.7 -8 8 C-7.34 7.67 -6.68 7.34 -6 7 C-5.01 7.33 -4.02 7.66 -3 8 C-3.33 6.35 -3.66 4.7 -4 3 C-3.01 3 -2.02 3 -1 3 C-0.67 2.01 -0.34 1.02 0 0 Z " fill="#54AC52" transform="translate(424,169)"/>
<path d="M0 0 C1.98 0 3.96 0 6 0 C5.55527344 0.45890625 5.11054688 0.9178125 4.65234375 1.390625 C4.08644531 2.00421875 3.52054687 2.6178125 2.9375 3.25 C2.36902344 3.85328125 1.80054688 4.4565625 1.21484375 5.078125 C-0.25409331 6.94272384 -0.25409331 6.94272384 0.31640625 9.234375 C0.54199219 9.81703125 0.76757812 10.3996875 1 11 C0.01 11 -0.98 11 -2 11 C-2.66 9.35 -3.32 7.7 -4 6 C-3.67 5.67 -3.34 5.34 -3 5 C-3.33 4.01 -3.66 3.02 -4 2 C-2.68 2.33 -1.36 2.66 0 3 C0 2.01 0 1.02 0 0 Z " fill="#3B9457" transform="translate(255,161)"/>
<path d="M0 0 C0.33 0 0.66 0 1 0 C1.02693575 2.12493141 1.04636628 4.24995912 1.0625 6.375 C1.07410156 7.55835938 1.08570313 8.74171875 1.09765625 9.9609375 C1 13 1 13 0 15 C-2.99324263 13.9024777 -3.84610901 13.32317108 -5.25 10.375 C-5.4975 9.59125 -5.745 8.8075 -6 8 C-3.525 8.99 -3.525 8.99 -1 10 C-0.67 6.7 -0.34 3.4 0 0 Z " fill="#62B261" transform="translate(453,154)"/>
<path d="M0 0 C0.33 0.66 0.66 1.32 1 2 C1.66 2 2.32 2 3 2 C5.29648649 4.5614657 6 5.47967572 6 9 C3.36 8.67 0.72 8.34 -2 8 C-1.47731534 5.23723823 -0.89130413 2.6739124 0 0 Z " fill="#2D8B46" transform="translate(434,395)"/>
<path d="M0 0 C0.33 0.99 0.66 1.98 1 3 C1.99 3.33 2.98 3.66 4 4 C4 4.66 4 5.32 4 6 C4.99 6 5.98 6 7 6 C9.1519437 9.22791555 9.20086443 10.28400809 9 14 C6.03595495 11.19195732 3.55500981 8.81684226 2 5 C1.34 5 0.68 5 0 5 C0 4.34 0 3.68 0 3 C-0.66 3 -1.32 3 -2 3 C-2 2.34 -2 1.68 -2 1 C-1.34 0.67 -0.68 0.34 0 0 Z " fill="#4C986C" transform="translate(211,213)"/>
<path d="M0 0 C0.061875 0.5775 0.12375 1.155 0.1875 1.75 C0.85806057 4.23897728 0.85806057 4.23897728 3.4375 5.875 C6.4794008 8.39755189 7.17015254 10.18270167 8 14 C7.67 14.66 7.34 15.32 7 16 C-0.48291572 6.58997722 -0.48291572 6.58997722 -3 2 C-2.01 1.34 -1.02 0.68 0 0 Z " fill="#4C986B" transform="translate(339,355)"/>
<path d="M0 0 C2.475 0.99 2.475 0.99 5 2 C1.6189962 6.13621084 -1.66590534 9.81316569 -6 13 C-6 11.68 -6 10.36 -6 9 C-5.01 9 -4.02 9 -3 9 C-2.67 7.68 -2.34 6.36 -2 5 C-1.34 5 -0.68 5 0 5 C-0.2784375 4.0409375 -0.2784375 4.0409375 -0.5625 3.0625 C-0.706875 2.381875 -0.85125 1.70125 -1 1 C-0.67 0.67 -0.34 0.34 0 0 Z " fill="#49985F" transform="translate(267,148)"/>
<path d="M0 0 C0.66 0.33 1.32 0.66 2 1 C0.6875 3.5 0.6875 3.5 -1 6 C-1.99 6 -2.98 6 -4 6 C-4 7.98 -4 9.96 -4 12 C-5.97746603 12.73080266 -7.98072489 13.39421747 -10 14 C-10.66 13.67 -11.32 13.34 -12 13 C-10.88200014 11.66079162 -9.75538103 10.32877444 -8.625 9 C-7.99851563 8.2575 -7.37203125 7.515 -6.7265625 6.75 C-6.15679687 6.1725 -5.58703125 5.595 -5 5 C-4.34 5 -3.68 5 -3 5 C-3 4.34 -3 3.68 -3 3 C-1.5 1.375 -1.5 1.375 0 0 Z " fill="#68A07C" transform="translate(209,128)"/>
<path d="M0 0 C0.66 0 1.32 0 2 0 C1.34 1.32 0.68 2.64 0 4 C-0.33 3.34 -0.66 2.68 -1 2 C-0.67 1.34 -0.34 0.68 0 0 Z M-1 4 C-1.33 5.32 -1.66 6.64 -2 8 C-2.66 8 -3.32 8 -4 8 C-4.33 8.66 -4.66 9.32 -5 10 C-8.0625 10.625 -8.0625 10.625 -11 11 C-9.84826645 8.53199953 -8.95216435 6.95216435 -7 5 C-4.90200436 4.34437636 -3.19959601 4 -1 4 Z " fill="#349250" transform="translate(274,64)"/>
<path d="M0 0 C0.66 0.33 1.32 0.66 2 1 C0.62159784 3.83338222 -0.86418386 6.55688806 -2.5 9.25 C-2.9228125 9.95640625 -3.345625 10.6628125 -3.78125 11.390625 C-4.38453125 12.18726563 -4.38453125 12.18726563 -5 13 C-5.66 13 -6.32 13 -7 13 C-7 12.01 -7 11.02 -7 10 C-6.34 10 -5.68 10 -5 10 C-5 9.34 -5 8.68 -5 8 C-5.66 8 -6.32 8 -7 8 C-6.67 7.34 -6.34 6.68 -6 6 C-5.01 6.33 -4.02 6.66 -3 7 C-3 5.35 -3 3.7 -3 2 C-2.01 2 -1.02 2 0 2 C0 1.34 0 0.68 0 0 Z " fill="#4B9969" transform="translate(297,345)"/>
<path d="M0 0 C3.2779964 0.31138135 4.68067027 0.67325837 7.01953125 3.06640625 C7.61121094 3.89011719 8.20289063 4.71382812 8.8125 5.5625 C9.41707031 6.38878906 10.02164063 7.21507812 10.64453125 8.06640625 C11.09183594 8.70449219 11.53914062 9.34257812 12 10 C11.01 10.33 10.02 10.66 9 11 C7.49703315 9.35687553 5.99769719 7.71042916 4.5 6.0625 C3.6646875 5.14597656 2.829375 4.22945312 1.96875 3.28515625 C0 1 0 1 0 0 Z " fill="#438E5F" transform="translate(228,236)"/>
<path d="M0 0 C-0.33 1.32 -0.66 2.64 -1 4 C-1.66 4 -2.32 4 -3 4 C-3 4.66 -3 5.32 -3 6 C-3.66 6 -4.32 6 -5 6 C-5 6.66 -5 7.32 -5 8 C-6.62626404 9.38232443 -8.2925002 10.71937515 -10 12 C-10.33 11.01 -10.66 10.02 -11 9 C-10.34 8.34 -9.68 7.68 -9 7 C-7.50474756 5.15904853 -6.01443269 3.3147622 -4.53515625 1.4609375 C-3 0 -3 0 0 0 Z " fill="#4DA55E" transform="translate(330,88)"/>
<path d="M0 0 C0.66 0 1.32 0 2 0 C3.03789581 1.64333504 4.03567924 3.31243867 5 5 C5.66 5.66 6.32 6.32 7 7 C7.125 9.625 7.125 9.625 7 12 C3.7373124 8.91367389 0.97764782 6.06516496 -1 2 C-0.67 1.34 -0.34 0.68 0 0 Z " fill="#489568" transform="translate(289,293)"/>
<path d="M0 0 C0.99 0.99 1.98 1.98 3 3 C2.34 4.32 1.68 5.64 1 7 C0.34 7 -0.32 7 -1 7 C-1.66 7.66 -2.32 8.32 -3 9 C-3.99 9 -4.98 9 -6 9 C-4.47291037 5.56404834 -2.40072955 2.88087546 0 0 Z " fill="#449F57" transform="translate(349,217)"/>
<path d="M0 0 C4.91648005 1.22912001 7.31059221 2.65557203 10 7 C10 8.32 10 9.64 10 11 C9.34 11 8.68 11 8 11 C6.56197818 9.4089357 5.19674665 7.7513985 3.875 6.0625 C3.15054687 5.14597656 2.42609375 4.22945313 1.6796875 3.28515625 C0 1 0 1 0 0 Z " fill="#459665" transform="translate(361,389)"/>
<path d="M0 0 C0.391875 0.556875 0.78375 1.11375 1.1875 1.6875 C3.00082938 4.13581418 3.00082938 4.13581418 5.625 6.375 C8.31333761 9.34632051 8.72561409 11.06713533 9 15 C4.45924219 10.85989729 1.28157862 6.17609824 -2 1 C-1.34 0.67 -0.68 0.34 0 0 Z " fill="#559E75" transform="translate(279,280)"/>
<path d="M0 0 C2.64 0 5.28 0 8 0 C7.625 2.4375 7.625 2.4375 7 5 C6.01 5.495 6.01 5.495 5 6 C5 5.34 5 4.68 5 4 C4.34 4 3.68 4 3 4 C2.67 4.99 2.34 5.98 2 7 C1.34 4.69 0.68 2.38 0 0 Z " fill="#20952D" transform="translate(352,55)"/>
<path d="M0 0 C3.1875 -0.3125 3.1875 -0.3125 6 0 C5 2 4 4 3 6 C0.03 5.505 0.03 5.505 -3 5 C-1.875 2.5 -1.875 2.5 0 0 Z " fill="#3E4246" transform="translate(218,354)"/>
<path d="M0 0 C0.66 0.33 1.32 0.66 2 1 C2.20086443 4.71599191 2.1519437 5.77208445 0 9 C-2.53559113 7.73220443 -4.10056922 6.08937386 -6 4 C-6 3.34 -6 2.68 -6 2 C-4.7934375 1.7834375 -4.7934375 1.7834375 -3.5625 1.5625 C-1.07896294 1.25864751 -1.07896294 1.25864751 0 0 Z " fill="#077933" transform="translate(286,280)"/>
<path d="M0 0 C0.99 0.33 1.98 0.66 3 1 C2.01 1.495 2.01 1.495 1 2 C0.938125 2.78375 0.87625 3.5675 0.8125 4.375 C0.544375 5.24125 0.27625 6.1075 0 7 C-3.5625 8.8125 -3.5625 8.8125 -7 10 C-6.8125 8.1875 -6.8125 8.1875 -6 6 C-4.35178756 4.96986723 -2.68496298 3.96885372 -1 3 C-0.67 2.01 -0.34 1.02 0 0 Z " fill="#1D9226" transform="translate(381,181)"/>
<path d="M0 0 C2.625 1.4375 2.625 1.4375 5 3 C3.71717836 5.56564327 2.60228656 5.88473433 0 7 C-1.3242287 7.36784131 -2.65613912 7.71202981 -4 8 C-3.40138258 5.64828869 -2.73075648 3.3140622 -2 1 C-1.34 0.67 -0.68 0.34 0 0 Z " fill="#17902A" transform="translate(370,195)"/>
<path d="M0 0 C0.66 0.33 1.32 0.66 2 1 C1.50628906 1.33773437 1.01257813 1.67546875 0.50390625 2.0234375 C-0.13675781 2.46945313 -0.77742188 2.91546875 -1.4375 3.375 C-2.07558594 3.81585938 -2.71367187 4.25671875 -3.37109375 4.7109375 C-5.13740928 5.92160853 -5.13740928 5.92160853 -6 8 C-7.65 8 -9.3 8 -11 8 C-7.6378363 4.34117479 -4.63949148 1.85579659 0 0 Z " fill="#54AE56" transform="translate(445,108)"/>
<path d="M0 0 C0.66 0.99 1.32 1.98 2 3 C0.515 5.475 0.515 5.475 -1 8 C-3.97 7.505 -3.97 7.505 -7 7 C-5.39481085 3.7896217 -2.83910113 2.0820075 0 0 Z " fill="#22834D" transform="translate(258,397)"/>
<path d="M0 0 C0.99 0.99 1.98 1.98 3 3 C-1.455 5.97 -1.455 5.97 -6 9 C-6 6.69 -6 4.38 -6 2 C-3.525 2.495 -3.525 2.495 -1 3 C-0.67 2.01 -0.34 1.02 0 0 Z " fill="#3E925E" transform="translate(147,248)"/>
<path d="M0 0 C1.43088528 2.86177057 0.59991697 4.93375773 0 8 C-1.65 8 -3.3 8 -5 8 C-5 8.66 -5 9.32 -5 10 C-5.66 10 -6.32 10 -7 10 C-7 10.66 -7 11.32 -7 12 C-7.66 11.67 -8.32 11.34 -9 11 C-8.67 10.34 -8.34 9.68 -8 9 C-7.34 9 -6.68 9 -6 9 C-6 8.34 -6 7.68 -6 7 C-5.34 7 -4.68 7 -4 7 C-3.71125 6.21625 -3.4225 5.4325 -3.125 4.625 C-2 2 -2 2 0 0 Z " fill="#6AB96E" transform="translate(403,152)"/>
<path d="M0 0 C0.99 0.33 1.98 0.66 3 1 C0.36 4.63 -2.28 8.26 -5 12 C-5.66 10.68 -6.32 9.36 -7 8 C-6.01 7.67 -5.02 7.34 -4 7 C-2.79117904 4.99983534 -2.79117904 4.99983534 -2 3 C-1.34 3 -0.68 3 0 3 C0 2.01 0 1.02 0 0 Z " fill="#4A9669" transform="translate(278,371)"/>
<path d="M0 0 C0 3 0 3 -1 5 C-0.34 5.33 0.32 5.66 1 6 C0 8 0 8 -3.0625 9.125 C-4.031875 9.41375 -5.00125 9.7025 -6 10 C-5.58578031 5.16743695 -3.53586014 3.17320782 0 0 Z " fill="#409260" transform="translate(196,142)"/>
<path d="M0 0 C0.75 1.6875 0.75 1.6875 1 4 C-0.6875 6.75 -0.6875 6.75 -3 9 C-4.32 9 -5.64 9 -7 9 C-5.44499019 5.18315774 -2.96404505 2.80804268 0 0 Z " fill="#509E68" transform="translate(227,110)"/>
<path d="M0 0 C1.32 0.66 2.64 1.32 4 2 C4.36923077 7.53846154 4.36923077 7.53846154 2.5 9.875 C1.7575 10.431875 1.7575 10.431875 1 11 C1 8.36 1 5.72 1 3 C0.34 3 -0.32 3 -1 3 C-0.67 2.01 -0.34 1.02 0 0 Z " fill="#2D9640" transform="translate(370,241)"/>
<path d="M0 0 C0.66 0.33 1.32 0.66 2 1 C2 2.98 2 4.96 2 7 C-0.31 7.33 -2.62 7.66 -5 8 C-4.67 6.68 -4.34 5.36 -4 4 C-3.34 4 -2.68 4 -2 4 C-2 3.34 -2 2.68 -2 2 C-1.34 2 -0.68 2 0 2 C0 1.34 0 0.68 0 0 Z " fill="#27982C" transform="translate(398,160)"/>
<path d="M0 0 C-0.33 2.64 -0.66 5.28 -1 8 C-2.98 8 -4.96 8 -7 8 C-2.45945946 0 -2.45945946 0 0 0 Z " fill="#5AB05B" transform="translate(411,144)"/>
<path d="M0 0 C0.33 0 0.66 0 1 0 C1.10655578 6.44070471 0.96205088 12.62641289 0 19 C-0.66 18.67 -1.32 18.34 -2 18 C-1.67 15.69 -1.34 13.38 -1 11 C-1.66 10.67 -2.32 10.34 -3 10 C-2.01 8.35 -1.02 6.7 0 5 C-0.66 4.67 -1.32 4.34 -2 4 C-1.34 2.68 -0.68 1.36 0 0 Z " fill="#2D9B2C" transform="translate(454,135)"/>
<path d="M0 0 C2.31 0.33 4.62 0.66 7 1 C7.33 2.98 7.66 4.96 8 7 C7.01 7 6.02 7 5 7 C3.61328125 5.46875 3.61328125 5.46875 2.3125 3.5 C1.87550781 2.8503125 1.43851562 2.200625 0.98828125 1.53125 C0.49908203 0.77328125 0.49908203 0.77328125 0 0 Z " fill="#39925E" transform="translate(350,375)"/>
<path d="M0 0 C-2.31 2.31 -4.62 4.62 -7 7 C-8 4 -8 4 -8 0 C-4.63458162 -1.08174162 -3.70152678 -0.92538169 0 0 Z " fill="#509F71" transform="translate(209,217)"/>
<path d="M0 0 C0.66 0.66 1.32 1.32 2 2 C1.67 2.66 1.34 3.32 1 4 C0.01 4 -0.98 4 -2 4 C-1.67 5.65 -1.34 7.3 -1 9 C-2.32 8.67 -3.64 8.34 -5 8 C-4.1875 4.5625 -4.1875 4.5625 -3 1 C-2.01 0.67 -1.02 0.34 0 0 Z " fill="#239D22" transform="translate(422,168)"/>
<path d="M0 0 C1.98 0.99 3.96 1.98 6 3 C6 4.32 6 5.64 6 7 C3.03824877 6.38722388 1.61941217 5.74627478 -1 4 C-0.67 2.68 -0.34 1.36 0 0 Z " fill="#097B35" transform="translate(330,344)"/>
<path d="M0 0 C0.99 0.495 0.99 0.495 2 1 C2 1.66 2 2.32 2 3 C2.66 3 3.32 3 4 3 C5.32 5.31 6.64 7.62 8 10 C7.01 10.495 7.01 10.495 6 11 C5.67 10.34 5.34 9.68 5 9 C4.01 8.67 3.02 8.34 2 8 C1.26953125 6.15234375 1.26953125 6.15234375 0.8125 3.9375 C0.65394531 3.20402344 0.49539063 2.47054688 0.33203125 1.71484375 C0.22246094 1.14894531 0.11289062 0.58304687 0 0 Z " fill="#53A16B" transform="translate(353,296)"/>
<path d="M0 0 C0.33 0 0.66 0 1 0 C0.50769231 6.4 0.50769231 6.4 -2.0625 9.4375 C-3.0215625 10.2109375 -3.0215625 10.2109375 -4 11 C-4.625 8.625 -4.625 8.625 -5 6 C-4.34 5.34 -3.68 4.68 -3 4 C-2.01 4 -1.02 4 0 4 C0 2.68 0 1.36 0 0 Z " fill="#43A047" transform="translate(405,196)"/>
<path d="M0 0 C1.65 0.33 3.3 0.66 5 1 C5 1.66 5 2.32 5 3 C4.34 3 3.68 3 3 3 C3 3.66 3 4.32 3 5 C1.625 6.625 1.625 6.625 0 8 C-0.66 8 -1.32 8 -2 8 C-2.33 8.66 -2.66 9.32 -3 10 C-3 8.35 -3 6.7 -3 5 C-1.35 4.67 0.3 4.34 2 4 C1.34 2.68 0.68 1.36 0 0 Z " fill="#509F66" transform="translate(275,140)"/>
<path d="M0 0 C0.99 0 1.98 0 3 0 C3 1.65 3 3.3 3 5 C2.01 5.495 2.01 5.495 1 6 C0.34 5.67 -0.32 5.34 -1 5 C-1.33 5.99 -1.66 6.98 -2 8 C-2.66 7.67 -3.32 7.34 -4 7 C-3.34 5.35 -2.68 3.7 -2 2 C-1.34 2 -0.68 2 0 2 C0 1.34 0 0.68 0 0 Z " fill="#308853" transform="translate(213,124)"/>
<path d="M0 0 C0.125 6.75 0.125 6.75 -1 9 C-1.66 9 -2.32 9 -3 9 C-3.66 7.02 -4.32 5.04 -5 3 C-1.125 0 -1.125 0 0 0 Z " fill="#2C963B" transform="translate(333,80)"/>
<path d="M0 0 C1.11498117 4.45992466 0.75592147 5.87358455 -1 10 C-2.625 11.875 -2.625 11.875 -4 13 C-4.66 12.67 -5.32 12.34 -6 12 C-5.34 10.68 -4.68 9.36 -4 8 C-3.34 8 -2.68 8 -2 8 C-1.34 5.36 -0.68 2.72 0 0 Z " fill="#178344" transform="translate(237,355)"/>
<path d="M0 0 C0.33 0.66 0.66 1.32 1 2 C0.06421005 4.35981813 -0.93347808 6.69631264 -2 9 C-3.32 9 -4.64 9 -6 9 C-6 8.34 -6 7.68 -6 7 C-5.34 7 -4.68 7 -4 7 C-3.71125 6.21625 -3.4225 5.4325 -3.125 4.625 C-2 2 -2 2 0 0 Z " fill="#4E9E70" transform="translate(248,341)"/>
<path d="M0 0 C2.29013653 3.4352048 2.17842973 4.985331 2 9 C1.01 9.33 0.02 9.66 -1 10 C-1.66 7.36 -2.32 4.72 -3 2 C-2.01 1.34 -1.02 0.68 0 0 Z " fill="#0A7A36" transform="translate(310,313)"/>
<path d="M0 0 C2.83022097 3.99560608 1.76210446 7.42737323 1 12 C0.01 12 -0.98 12 -2 12 C-1.85831863 10.56208484 -1.71148957 9.1246763 -1.5625 7.6875 C-1.48128906 6.88699219 -1.40007812 6.08648437 -1.31640625 5.26171875 C-1 3 -1 3 0 0 Z " fill="#43484B" transform="translate(137,299)"/>
<path d="M0 0 C1.32 0 2.64 0 4 0 C4.33 0.99 4.66 1.98 5 3 C4.01 2.67 3.02 2.34 2 2 C0.02 4.97 0.02 4.97 -2 8 C-2.144375 7.401875 -2.28875 6.80375 -2.4375 6.1875 C-2.8872439 4.43849596 -3.42892341 2.71322977 -4 1 C-2.68 1.33 -1.36 1.66 0 2 C0 1.34 0 0.68 0 0 Z " fill="#5DB258" transform="translate(436,152)"/>
<path d="M0 0 C2.76223278 2.76223278 2.57856291 5.20706617 3 9 C-1.875 4.375 -1.875 4.375 -3 1 C-2.01 0.67 -1.02 0.34 0 0 Z " fill="#469B66" transform="translate(306,313)"/>
<path d="M0 0 C0.33 0.66 0.66 1.32 1 2 C1.99 2 2.98 2 4 2 C3.34 3.65 2.68 5.3 2 7 C1.01 7 0.02 7 -1 7 C-1 3 -1 3 0 0 Z " fill="#339941" transform="translate(388,218)"/>
<path d="M0 0 C0.99 0 1.98 0 3 0 C2.34 3.63 1.68 7.26 1 11 C0.67 11 0.34 11 0 11 C0 9.02 0 7.04 0 5 C-0.99 4.67 -1.98 4.34 -3 4 C-2.34 3.67 -1.68 3.34 -1 3 C-0.67 2.01 -0.34 1.02 0 0 Z " fill="#5A5F61" transform="translate(157,398)"/>
<path d="M0 0 C0.99 0 1.98 0 3 0 C2.67 1.65 2.34 3.3 2 5 C0.02 5.66 -1.96 6.32 -4 7 C-2.68 4.69 -1.36 2.38 0 0 Z " fill="#449468" transform="translate(265,318)"/>
<path d="M0 0 C0.99 0.33 1.98 0.66 3 1 C1.625 3 1.625 3 0 5 C-0.66 5 -1.32 5 -2 5 C-2.33 5.99 -2.66 6.98 -3 8 C-3.33 8 -3.66 8 -4 8 C-4.25 5.6875 -4.25 5.6875 -4 3 C-2.1875 1.125 -2.1875 1.125 0 0 Z " fill="#57A56A" transform="translate(298,119)"/>
<path d="M0 0 C1.32 0 2.64 0 4 0 C3.67 5.28 3.34 10.56 3 16 C2.67 16 2.34 16 2 16 C2 11.38 2 6.76 2 2 C1.01 1.67 0.02 1.34 -1 1 C-0.67 0.67 -0.34 0.34 0 0 Z " fill="#97D195" transform="translate(456,103)"/>
<path d="M0 0 C1.32 0.33 2.64 0.66 4 1 C3.01 2.98 2.02 4.96 1 7 C-0.5 5.625 -0.5 5.625 -2 4 C-2 3.34 -2 2.68 -2 2 C-1.34 2 -0.68 2 0 2 C0 1.34 0 0.68 0 0 Z " fill="#048135" transform="translate(372,392)"/>
<path d="M0 0 C1.24546405 2.49092811 0.7767578 3.41080733 0 6 C-1.65 5.67 -3.3 5.34 -5 5 C-4.67 3.68 -4.34 2.36 -4 1 C-2.68 0.67 -1.36 0.34 0 0 Z " fill="#0C7E36" transform="translate(366,384)"/>
<path d="M0 0 C0.99 0 1.98 0 3 0 C2.34 2.31 1.68 4.62 1 7 C1.99 7.33 2.98 7.66 4 8 C3.67 8.66 3.34 9.32 3 10 C2.34 10 1.68 10 1 10 C0.63883954 8.5225254 0.28624952 7.04295325 -0.0625 5.5625 C-0.25972656 4.73878906 -0.45695312 3.91507812 -0.66015625 3.06640625 C-0.82837891 2.04353516 -0.82837891 2.04353516 -1 1 C-0.67 0.67 -0.34 0.34 0 0 Z " fill="#097934" transform="translate(346,361)"/>
<path d="M0 0 C0.99 0 1.98 0 3 0 C2.6875 2.375 2.6875 2.375 2 5 C1.01 5.66 0.02 6.32 -1 7 C-1.625 4.625 -1.625 4.625 -2 2 C-1.34 1.34 -0.68 0.68 0 0 Z " fill="#3D4247" transform="translate(243,323)"/>
<path d="M0 0 C3.465 1.485 3.465 1.485 7 3 C7 3.99 7 4.98 7 6 C6.01 6.495 6.01 6.495 5 7 C4.01 6.34 3.02 5.68 2 5 C2 4.34 2 3.68 2 3 C1.34 2.67 0.68 2.34 0 2 C0 1.34 0 0.68 0 0 Z " fill="#3E9658" transform="translate(264,185)"/>
<path d="M0 0 C4.875 4.625 4.875 4.625 6 8 C4.35 7.67 2.7 7.34 1 7 C0.67 6.01 0.34 5.02 0 4 C-0.66 3.34 -1.32 2.68 -2 2 C-1.34 2 -0.68 2 0 2 C0 1.34 0 0.68 0 0 Z " fill="#489C5B" transform="translate(406,361)"/>
<path d="M0 0 C0.66 0.33 1.32 0.66 2 1 C1.125 5.75 1.125 5.75 0 8 C-0.66 8 -1.32 8 -2 8 C-2.33 8.66 -2.66 9.32 -3 10 C-3 8.68 -3 7.36 -3 6 C-2.34 6 -1.68 6 -1 6 C-0.67 4.02 -0.34 2.04 0 0 Z " fill="#69A57C" transform="translate(306,331)"/>
<path d="M0 0 C0.99 1.32 1.98 2.64 3 4 C2.01 4.99 1.02 5.98 0 7 C0.66 7.33 1.32 7.66 2 8 C1.01 9.485 1.01 9.485 0 11 C-0.66 11 -1.32 11 -2 11 C-1.34 7.37 -0.68 3.74 0 0 Z " fill="#5C5F62" transform="translate(133,315)"/>
<path d="M0 0 C0.99 0.33 1.98 0.66 3 1 C3 2.65 3 4.3 3 6 C2.01 6.495 2.01 6.495 1 7 C0.01 6.34 -0.98 5.68 -2 5 C-1.34 3.35 -0.68 1.7 0 0 Z " fill="#107538" transform="translate(301,305)"/>
<path d="M0 0 C1.875 0.25 1.875 0.25 4 1 C5.25 3.0625 5.25 3.0625 6 5 C3.36 4.67 0.72 4.34 -2 4 C-1.34 2.68 -0.68 1.36 0 0 Z " fill="#5D9C75" transform="translate(279,300)"/>
<path d="M0 0 C0.66 1.65 1.32 3.3 2 5 C1.01 5.33 0.02 5.66 -1 6 C-1.33 5.67 -1.66 5.34 -2 5 C-2.99 5.495 -2.99 5.495 -4 6 C-4.33 5.01 -4.66 4.02 -5 3 C-2.25 0 -2.25 0 0 0 Z " fill="#06722E" transform="translate(292,289)"/>
<path d="M0 0 C0.33 0.66 0.66 1.32 1 2 C0.00390625 3.9453125 0.00390625 3.9453125 -1.4375 6.125 C-1.91058594 6.84945313 -2.38367188 7.57390625 -2.87109375 8.3203125 C-3.24363281 8.87460937 -3.61617187 9.42890625 -4 10 C-4.66 9.01 -5.32 8.02 -6 7 C-5.67 6.34 -5.34 5.68 -5 5 C-4.34 5.33 -3.68 5.66 -3 6 C-2.87625 5.195625 -2.7525 4.39125 -2.625 3.5625 C-2.41875 2.716875 -2.2125 1.87125 -2 1 C-1.34 0.67 -0.68 0.34 0 0 Z " fill="#4B9969" transform="translate(137,262)"/>
<path d="M0 0 C1.485 0.99 1.485 0.99 3 2 C3 2.66 3 3.32 3 4 C3.99 4.33 4.98 4.66 6 5 C6 5.66 6 6.32 6 7 C6.66 7 7.32 7 8 7 C7.67 7.66 7.34 8.32 7 9 C4.625 8.4375 4.625 8.4375 2 7 C0.6875 3.375 0.6875 3.375 0 0 Z " fill="#66AE7D" transform="translate(293,215)"/>
<path d="M0 0 C4.29 0.33 8.58 0.66 13 1 C13 1.99 13 2.98 13 4 C8.51474352 3.343621 4.33085971 2.29925791 0 1 C0 0.67 0 0.34 0 0 Z " fill="#66B66B" transform="translate(399,132)"/>
<path d="M0 0 C0.33 0.99 0.66 1.98 1 3 C0.67 3.66 0.34 4.32 0 5 C-0.66 5 -1.32 5 -2 5 C-2.33 6.32 -2.66 7.64 -3 9 C-3.99 8.67 -4.98 8.34 -6 8 C-4.02 5.36 -2.04 2.72 0 0 Z " fill="#5BA378" transform="translate(235,358)"/>
<path d="M0 0 C0.66 0 1.32 0 2 0 C0.79157144 4.43090471 -0.51668565 6.98112756 -4 10 C-3.29445932 6.33118845 -1.72264494 3.29549466 0 0 Z " fill="#0F351E" transform="translate(279,258)"/>
<path d="M0 0 C0.33 1.32 0.66 2.64 1 4 C0.01 4 -0.98 4 -2 4 C-2.33 5.65 -2.66 7.3 -3 9 C-4.32 8.67 -5.64 8.34 -7 8 C-4.69 5.36 -2.38 2.72 0 0 Z " fill="#66AE7D" transform="translate(329,241)"/>
<path d="M0 0 C1.70884005 1.62339805 3.37446717 3.29319053 5 5 C5 5.66 5 6.32 5 7 C4.01 7.33 3.02 7.66 2 8 C0 5 0 5 -1 2 C-0.67 1.34 -0.34 0.68 0 0 Z " fill="#67AA74" transform="translate(315,240)"/>
<path d="M0 0 C1.65 0.33 3.3 0.66 5 1 C3.35830472 3.02054804 1.69088222 5.02043058 0 7 C-0.33 7 -0.66 7 -1 7 C-0.67 4.69 -0.34 2.38 0 0 Z " fill="#4C996C" transform="translate(195,224)"/>
<path d="M0 0 C0.66 0 1.32 0 2 0 C2 0.99 2 1.98 2 3 C2.66 3.33 3.32 3.66 4 4 C2.35 5.32 0.7 6.64 -1 8 C-0.67 5.36 -0.34 2.72 0 0 Z " fill="#2D9044" transform="translate(284,130)"/>
<path d="M0 0 C0.33 0.66 0.66 1.32 1 2 C-1.40983607 6.70491803 -1.40983607 6.70491803 -4 8 C-4.66 7.34 -5.32 6.68 -6 6 C-4.02 4.02 -2.04 2.04 0 0 Z " fill="#4B9F69" transform="translate(239,98)"/>
<path d="M0 0 C-0.33 1.32 -0.66 2.64 -1 4 C-3 4 -5 4 -7 4 C-7 3.34 -7 2.68 -7 2 C-4 0 -4 0 0 0 Z " fill="#128233" transform="translate(286,56)"/>
<path d="M0 0 C2.43929746 1.92576115 4.80090595 3.80090595 7 6 C5.35 6.33 3.7 6.66 2 7 C0.4375 4.625 0.4375 4.625 -1 2 C-0.67 1.34 -0.34 0.68 0 0 Z " fill="#227E45" transform="translate(371,397)"/>
<path d="M0 0 C2.49361571 1.20381448 4.68143083 2.45428722 7 4 C7 5.32 7 6.64 7 8 C6.34 8 5.68 8 5 8 C3.7109375 6.25 3.7109375 6.25 2.375 4 C1.92898438 3.2575 1.48296875 2.515 1.0234375 1.75 C0.68570312 1.1725 0.34796875 0.595 0 0 Z " fill="#519B6C" transform="translate(329,348)"/>
<path d="M0 0 C0.33 0.99 0.66 1.98 1 3 C0.34 3 -0.32 3 -1 3 C-0.67 5.31 -0.34 7.62 0 10 C-1.32 9.01 -2.64 8.02 -4 7 C-3.34 5.35 -2.68 3.7 -2 2 C-1.34 2 -0.68 2 0 2 C0 1.34 0 0.68 0 0 Z " fill="#3A9553" transform="translate(333,236)"/>
<path d="M0 0 C2.58949269 1.29474635 2.96035764 2.32663393 4 5 C4.125 7.75 4.125 7.75 4 10 C3.34 10 2.68 10 2 10 C1.690625 9.05125 1.38125 8.1025 1.0625 7.125 C0.12605258 4.13919592 0.12605258 4.13919592 -1 2 C-0.67 1.34 -0.34 0.68 0 0 Z " fill="#1E8F3E" transform="translate(291,213)"/>
<path d="M0 0 C0.6875 1.75 0.6875 1.75 1 4 C-0.3125 6.25 -0.3125 6.25 -2 8 C-2.66 8 -3.32 8 -4 8 C-3.40072174 4.64404172 -2.15377564 2.62198774 0 0 Z " fill="#4FAD59" transform="translate(393,164)"/>
<path d="M0 0 C0.33 0.99 0.66 1.98 1 3 C-0.65 4.65 -2.3 6.3 -4 8 C-3.67 5.69 -3.34 3.38 -3 1 C-2.01 0.67 -1.02 0.34 0 0 Z " fill="#279C2A" transform="translate(407,151)"/>
<path d="M0 0 C2.475 0.99 2.475 0.99 5 2 C3.35 3.65 1.7 5.3 0 7 C-0.38133299 5.0085944 -0.71325582 3.00720923 -1 1 C-0.67 0.67 -0.34 0.34 0 0 Z " fill="#3C9751" transform="translate(267,148)"/>
<path d="M0 0 C1.32 0 2.64 0 4 0 C4 1.98 4 3.96 4 6 C3.01 6 2.02 6 1 6 C1 6.66 1 7.32 1 8 C0.34 8 -0.32 8 -1 8 C0 6 1 4 2 2 C1.34 1.34 0.68 0.68 0 0 Z " fill="#6EBC70" transform="translate(412,136)"/>
<path d="M0 0 C0.99 0.33 1.98 0.66 3 1 C2.01 2.485 2.01 2.485 1 4 C0.34 4 -0.32 4 -1 4 C-1.33 4.99 -1.66 5.98 -2 7 C-2.66 6.01 -3.32 5.02 -4 4 C-2.68 2.68 -1.36 1.36 0 0 Z " fill="#55A165" transform="translate(304,113)"/>
<path d="M0 0 C0 4.61538462 0 4.61538462 -1 7 C-3.5625 8.25 -3.5625 8.25 -6 9 C-4.47291037 5.56404834 -2.40072955 2.88087546 0 0 Z " fill="#78B290" transform="translate(208,393)"/>
<path d="M0 0 C0.33 0 0.66 0 1 0 C1 1.98 1 3.96 1 6 C0.01 6 -0.98 6 -2 6 C-1.125 1.125 -1.125 1.125 0 0 Z M-4 5 C-3.34 5.66 -2.68 6.32 -2 7 C-2.99 7 -3.98 7 -5 7 C-4.67 6.34 -4.34 5.68 -4 5 Z " fill="#13191C" transform="translate(229,340)"/>
<path d="M0 0 C1.65 1.65 3.3 3.3 5 5 C4.67 5.66 4.34 6.32 4 7 C1.525 6.01 1.525 6.01 -1 5 C-0.67 3.35 -0.34 1.7 0 0 Z " fill="#4D9A6D" transform="translate(291,312)"/>
<path d="M0 0 C0.33 0.99 0.66 1.98 1 3 C0.67 3.66 0.34 4.32 0 5 C-0.66 5 -1.32 5 -2 5 C-1.67 5.99 -1.34 6.98 -1 8 C-2.32 7.34 -3.64 6.68 -5 6 C-3.35 4.02 -1.7 2.04 0 0 Z " fill="#61AD77" transform="translate(339,229)"/>
<path d="M0 0 C2 1.375 2 1.375 4 3 C4 3.66 4 4.32 4 5 C4.66 5 5.32 5 6 5 C6.33 5.99 6.66 6.98 7 8 C6.01 8.495 6.01 8.495 5 9 C5 8.01 5 7.02 5 6 C3.68 5.67 2.36 5.34 1 5 C0.67 3.35 0.34 1.7 0 0 Z " fill="#5CA96E" transform="translate(272,191)"/>
<path d="M0 0 C0.66 0 1.32 0 2 0 C2.33 1.32 2.66 2.64 3 4 C2.01 4 1.02 4 0 4 C-1.68236471 4.62599617 -3.3523962 5.28752268 -5 6 C-3.625 4 -3.625 4 -2 2 C-1.34 2 -0.68 2 0 2 C0 1.34 0 0.68 0 0 Z " fill="#60AA7A" transform="translate(261,75)"/>
<path d="M0 0 C0.66 0 1.32 0 2 0 C2 1.32 2 2.64 2 4 C1.34 4 0.68 4 0 4 C-0.66 5.32 -1.32 6.64 -2 8 C-2.33 6.68 -2.66 5.36 -3 4 C-2.01 3.67 -1.02 3.34 0 3 C0 2.01 0 1.02 0 0 Z " fill="#5AA965" transform="translate(355,59)"/>
<path d="M0 0 C2.5 2.3125 2.5 2.3125 5 5 C5 5.99 5 6.98 5 8 C4.67 7.34 4.34 6.68 4 6 C1.97536745 5.34786708 1.97536745 5.34786708 0 5 C0 3.35 0 1.7 0 0 Z " fill="#4E9F66" transform="translate(428,388)"/>
<path d="M0 0 C0.33 1.32 0.66 2.64 1 4 C-0.32 4.99 -1.64 5.98 -3 7 C-3.66 6.67 -4.32 6.34 -5 6 C-3.35 4.02 -1.7 2.04 0 0 Z " fill="#549D76" transform="translate(223,374)"/>
<path d="M0 0 C0.66 0.66 1.32 1.32 2 2 C2.99 2 3.98 2 5 2 C4.67 2.99 4.34 3.98 4 5 C2.35 5.33 0.7 5.66 -1 6 C-0.67 4.02 -0.34 2.04 0 0 Z " fill="#434951" transform="translate(130,328)"/>
<path d="M0 0 C0.33 0 0.66 0 1 0 C1.125 2.375 1.125 2.375 1 5 C0.34 5.66 -0.32 6.32 -1 7 C-1.99 7 -2.98 7 -4 7 C-2.79618552 4.50638429 -1.54571278 2.31856917 0 0 Z " fill="#52A27B" transform="translate(260,325)"/>
<path d="M0 0 C1.65 1.65 3.3 3.3 5 5 C4.01 5.33 3.02 5.66 2 6 C1.01 5.34 0.02 4.68 -1 4 C-0.67 2.68 -0.34 1.36 0 0 Z " fill="#52A376" transform="translate(298,321)"/>
<path d="M0 0 C0.66 0.33 1.32 0.66 2 1 C1.67 2.32 1.34 3.64 1 5 C-0.32 5.33 -1.64 5.66 -3 6 C-3.33 5.34 -3.66 4.68 -4 4 C-2.68 2.68 -1.36 1.36 0 0 Z " fill="#2F884A" transform="translate(320,253)"/>
<path d="M0 0 C-0.25561323 2.3431213 -0.59270772 4.67843403 -1 7 C-1.99 7.495 -1.99 7.495 -3 8 C-3.33 6.02 -3.66 4.04 -4 2 C-1 0 -1 0 0 0 Z " fill="#409B4E" transform="translate(377,239)"/>
<path d="M0 0 C1 2 1 2 1 6 C-0.98 6.66 -2.96 7.32 -5 8 C-3.62845496 5.04590299 -2.01136276 2.55991624 0 0 Z " fill="#65B776" transform="translate(362,201)"/>
<path d="M0 0 C1.32 0 2.64 0 4 0 C4 1.32 4 2.64 4 4 C1.03 3.505 1.03 3.505 -2 3 C-1.34 2.67 -0.68 2.34 0 2 C0 1.34 0 0.68 0 0 Z " fill="#249927" transform="translate(412,132)"/>
<path d="M0 0 C0.66 0.33 1.32 0.66 2 1 C0.35 2.65 -1.3 4.3 -3 6 C-4.32 5.34 -5.64 4.68 -7 4 C-1.7265625 0.77734375 -1.7265625 0.77734375 0 0 Z " fill="#72B981" transform="translate(402,126)"/>
<path d="M0 0 C1.65 0 3.3 0 5 0 C4.67 0.99 4.34 1.98 4 3 C3.34 2.67 2.68 2.34 2 2 C2 3.65 2 5.3 2 7 C1.34 6.67 0.68 6.34 0 6 C0 4.02 0 2.04 0 0 Z " fill="#188D29" transform="translate(336,73)"/>
<path d="M0 0 C0.99 0 1.98 0 3 0 C1.70700306 2.88437779 0.34058637 4.87219421 -2 7 C-1.125 1.125 -1.125 1.125 0 0 Z " fill="#569B71" transform="translate(285,361)"/>
<path d="M0 0 C2 1.1875 2 1.1875 4 3 C4.25 5.6875 4.25 5.6875 4 8 C1 6 1 6 0.3125 2.875 C0.209375 1.92625 0.10625 0.9775 0 0 Z " fill="#318C52" transform="translate(292,297)"/>
<path d="M0 0 C2.97 0.33 5.94 0.66 9 1 C6.0017825 1.74955438 3.03063487 2.41070989 0 3 C0 2.01 0 1.02 0 0 Z " fill="#098231" transform="translate(306,259)"/>
<path d="M0 0 C2.375 0.25 2.375 0.25 5 1 C6.3125 3.0625 6.3125 3.0625 7 5 C6.34 5.66 5.68 6.32 5 7 C3.35 4.69 1.7 2.38 0 0 Z " fill="#539C6E" transform="translate(228,236)"/>
<path d="M0 0 C0.763125 0.0825 1.52625 0.165 2.3125 0.25 C1.9825 1.24 1.6525 2.23 1.3125 3.25 C-0.9975 3.58 -3.3075 3.91 -5.6875 4.25 C-3.34903846 0.31153846 -3.34903846 0.31153846 0 0 Z " fill="#429B65" transform="translate(202.6875,137.75)"/>
</svg>
